M48
;Layer_Color=9474304
;FILE_FORMAT=4:4
METRIC,LZ
;TYPE=PLATED
T1F00S00C0.3000
T2F00S00C0.9000
T3F00S00C1.0000
T4F00S00C2.5000
T5F00S00C3.0000
%
T01
X00147Y001695
X0018Y00166
X00189Y00136
X00166Y00219
X00255276Y00203736
X00241Y00243
Y00347
X00235Y0039975
X00248748Y00399999
X0025Y00409
X00243999Y00417999
X00236Y00413
X00206762Y00406769
X0020675Y00398
X00207Y0038675
X00185165Y003665
X00166Y00377
X00149Y00317
X00117Y00448
X00144Y00492
X00152Y00505
X001725Y0050625
X00192Y00514
X00188Y00468
X00217Y00485
X00219Y00548
X00246Y00541
X00237Y00608
X0022525Y0060722
X00237Y00631
X001675Y00634
X0017104Y0058131
X001885Y005805
X00166Y00556
X0016Y00545
X0025775Y00392
X00265739Y0038646
X0029551Y0036376
X00295657Y00354588
X00168Y00668
T02
X0030675Y0042595
Y0045135
Y0047675
Y0050215
Y0052755
Y0055295
T03
X00035Y00035
Y000604
X0009
Y00035
X00109Y000232
Y001232
X0009Y00135
Y001604
X00035
Y00135
Y00235
X0009
X00109Y002232
X0009Y002604
X00035
Y00335
Y003604
X0009
Y00335
X00109Y003232
Y004232
X0009Y00435
Y004604
X00035
Y00435
Y00535
Y005604
X0009
Y00535
X00109Y005232
Y006232
X0009Y00635
X00035
Y006604
X0009
Y00735
Y007604
X00035
Y00735
X00109Y007232
T04
X000625Y000287
Y000667
Y001287
Y001667
Y002287
Y002667
Y003287
Y003667
Y004287
Y004667
Y005287
Y005667
Y006287
Y006667
Y007287
Y007667
T05
X00282Y00175
Y00625
M30
