M48
;Layer_Color=9474304
;FILE_FORMAT=4:4
METRIC,LZ
;TYPE=PLATED
T1F00S00C0.3000
T2F00S00C0.6000
T3F00S00C0.7000
T4F00S00C0.9000
T5F00S00C1.0000
T6F00S00C3.0000
%
T01
X00059Y00114
X00088878Y00114
X00089886Y00122574
X00089Y00132
X0019601Y00127006
X0020926Y00128256
X00201Y00155
X0022629Y00147
X00235419Y00144503
X00241999Y0015
X0022Y00171
X00243627Y00198
X00271Y00177
Y00165
X002965Y001625
X00295832Y00151168
X00286Y00127
X00264Y001207
X00256842Y0011562
X00251805Y0010858
X00257958Y0010208
X00252012Y00095255
X00268Y00089
X0027546Y00093888
X00275149Y00069268
X00261Y00065
X00252Y00064
X00242512Y00066003
X00240762Y00075004
X00222761Y00068753
X00209Y0005175
X00188Y00062
X0017975Y000905
X00161Y00084
X00234Y00101
X00228371Y00108362
X00262999Y00081
X00304Y00053
X00313389Y0010175
X00323766Y00179509
X00325794Y0018856
X0030304Y00198
X0046525Y00168
T02
X001075Y0021
X001425
X00208Y00212
X00228
X00177316Y00167429
X00302999Y00264
X0035975Y0025735
X00411Y00193
X00403Y00141
X00416Y00284
X00283Y00278
T03
X00136Y000445
Y00092
T04
X00021Y000298
X000464
Y000552
Y000806
Y00106
Y001314
Y001568
Y001822
Y002076
Y00233
X00021
Y002076
Y001822
Y001568
Y001314
Y00106
Y000806
Y000552
X003753Y00047
Y000724
X004007
Y00047
Y000216
X003753
X00361Y00143
Y001684
Y001938
X003356Y001684
X002198Y00275
X001944
X00169
X001224Y00266
Y002914
X00097
Y00266
X000716
Y002914
X000462
X000208
Y00266
X000462
T05
X00446Y0005
X004841
Y0027
X00446
T06
X0019Y0001
X0049Y0021
X0029Y0031
M30
