G04*
G04 #@! TF.GenerationSoftware,Altium Limited,Altium Designer,20.0.12 (288)*
G04*
G04 Layer_Physical_Order=2*
G04 Layer_Color=16711680*
%FSLAX44Y44*%
%MOMM*%
G71*
G01*
G75*
%ADD11C,0.2500*%
%ADD12C,0.6000*%
%ADD13C,0.1270*%
%ADD15C,0.3000*%
%ADD49C,1.6000*%
%ADD54C,1.5000*%
%ADD72C,0.5000*%
%ADD73C,1.2000*%
%ADD74C,0.8000*%
%ADD76C,0.7000*%
%ADD77C,1.0000*%
%ADD78C,1.0000*%
%ADD79C,4.5000*%
%ADD80R,1.5000X1.4500*%
%ADD81R,1.5000X1.5000*%
%ADD82R,1.5000X1.5000*%
%ADD83C,2.0000*%
%ADD84C,1.4000*%
%ADD85C,1.8000*%
%ADD86C,1.2000*%
%ADD87R,1.8000X1.8000*%
%ADD88C,0.6000*%
%ADD89C,1.4000*%
G36*
X266090Y317439D02*
X265322Y314909D01*
X264839Y310000D01*
X265322Y305091D01*
X266754Y300371D01*
X269079Y296021D01*
X272208Y292208D01*
X276021Y289079D01*
X279431Y287257D01*
X279362Y285854D01*
X278893Y285660D01*
X277109Y284291D01*
X276909Y284091D01*
X275540Y282307D01*
X274680Y280229D01*
X274386Y278000D01*
X274680Y275771D01*
X275540Y273693D01*
X276909Y271909D01*
X278693Y270540D01*
X280771Y269680D01*
X283000Y269386D01*
X284519Y269586D01*
X296182D01*
X296808Y268316D01*
X296413Y267802D01*
X295653Y265968D01*
X295394Y264000D01*
X295653Y262031D01*
X296413Y260197D01*
X297622Y258622D01*
X298573Y257892D01*
X298141Y256622D01*
X136986D01*
X132214Y261394D01*
Y263622D01*
X132527Y266000D01*
X132182Y268621D01*
X131170Y271063D01*
X129561Y273161D01*
X127463Y274770D01*
X125021Y275782D01*
X122400Y276127D01*
X119779Y275782D01*
X117337Y274770D01*
X115239Y273161D01*
X113630Y271063D01*
X112618Y268621D01*
X112273Y266000D01*
X112618Y263379D01*
X112969Y262533D01*
Y257409D01*
X113297Y254918D01*
X113695Y253957D01*
X114258Y252598D01*
X115787Y250605D01*
X117965Y248427D01*
X117245Y247351D01*
X116714Y247570D01*
X114224Y247898D01*
X103310D01*
X96450Y254758D01*
X96732Y255330D01*
X97115Y255889D01*
X99621Y256218D01*
X102063Y257230D01*
X104161Y258839D01*
X105770Y260937D01*
X106782Y263379D01*
X107127Y266000D01*
X106782Y268621D01*
X105770Y271063D01*
X104161Y273161D01*
X102063Y274770D01*
X99621Y275782D01*
X97115Y276111D01*
X96732Y276670D01*
X96450Y277242D01*
X101679Y282471D01*
X102063Y282630D01*
X102267Y282786D01*
X117133D01*
X117337Y282630D01*
X119779Y281618D01*
X122400Y281273D01*
X125021Y281618D01*
X127463Y282630D01*
X129561Y284239D01*
X131170Y286337D01*
X132182Y288779D01*
X132527Y291400D01*
X132182Y294021D01*
X131170Y296463D01*
X129561Y298561D01*
X127463Y300170D01*
X125021Y301182D01*
X122400Y301527D01*
X119779Y301182D01*
X117337Y300170D01*
X117133Y300014D01*
X102267D01*
X102063Y300170D01*
X99621Y301182D01*
X97000Y301527D01*
X94379Y301182D01*
X91937Y300170D01*
X89839Y298561D01*
X88230Y296463D01*
X88071Y296079D01*
X82842Y290850D01*
X82270Y291132D01*
X81711Y291516D01*
X81382Y294021D01*
X80370Y296463D01*
X78761Y298561D01*
X76663Y300170D01*
X74221Y301182D01*
X71600Y301527D01*
X68979Y301182D01*
X66537Y300170D01*
X66333Y300014D01*
X51467D01*
X51263Y300170D01*
X48821Y301182D01*
X46200Y301527D01*
X43579Y301182D01*
X41137Y300170D01*
X39039Y298561D01*
X37430Y296463D01*
X37271Y296079D01*
X32042Y290850D01*
X31470Y291132D01*
X30911Y291516D01*
X30582Y294021D01*
X29570Y296463D01*
X27961Y298561D01*
X25863Y300170D01*
X23421Y301182D01*
X22070Y301359D01*
Y291400D01*
X20800D01*
Y290130D01*
X10841D01*
X11018Y288779D01*
X12030Y286337D01*
X13639Y284239D01*
X15737Y282630D01*
X18179Y281618D01*
X20684Y281289D01*
X21068Y280730D01*
X21350Y280158D01*
X17232Y276040D01*
X10760D01*
Y255960D01*
X30840D01*
Y262432D01*
X34958Y266550D01*
X35530Y266268D01*
X36089Y265884D01*
X36418Y263379D01*
X37430Y260937D01*
X39039Y258839D01*
X40557Y257675D01*
X40126Y256405D01*
X37020D01*
X35052Y256146D01*
X33977Y255701D01*
X33217Y255386D01*
X31642Y254178D01*
X20529Y243065D01*
X18379Y242782D01*
X15937Y241770D01*
X13839Y240161D01*
X12230Y238063D01*
X11218Y235621D01*
X11041Y234270D01*
X21000D01*
Y233000D01*
X22270D01*
Y223041D01*
X23621Y223218D01*
X26063Y224230D01*
X28161Y225839D01*
X29770Y227937D01*
X30782Y230379D01*
X30998Y232023D01*
X35702Y236727D01*
X36779Y236007D01*
X36618Y235621D01*
X36273Y233000D01*
X36618Y230379D01*
X37630Y227937D01*
X39239Y225839D01*
X41337Y224230D01*
X43779Y223218D01*
X46400Y222873D01*
X49021Y223218D01*
X51463Y224230D01*
X52872Y225311D01*
X53730D01*
X66652Y212389D01*
X66126Y211119D01*
X55809D01*
X55170Y212663D01*
X53561Y214761D01*
X51463Y216370D01*
X49021Y217382D01*
X46400Y217727D01*
X43779Y217382D01*
X41337Y216370D01*
X39239Y214761D01*
X37630Y212663D01*
X36618Y210221D01*
X36273Y207600D01*
X36618Y204979D01*
X37630Y202537D01*
X39239Y200439D01*
X39957Y199889D01*
X39525Y198619D01*
X35806D01*
X30391Y204035D01*
X30782Y204979D01*
X31127Y207600D01*
X30782Y210221D01*
X29770Y212663D01*
X28161Y214761D01*
X26063Y216370D01*
X23621Y217382D01*
X21000Y217727D01*
X18379Y217382D01*
X15937Y216370D01*
X13839Y214761D01*
X12230Y212663D01*
X11218Y210221D01*
X10873Y207600D01*
X11218Y204979D01*
X12230Y202537D01*
X13839Y200439D01*
X15937Y198830D01*
X18379Y197818D01*
X21000Y197473D01*
X23621Y197818D01*
X24565Y198209D01*
X31187Y191587D01*
X32524Y190694D01*
X34100Y190381D01*
X38660D01*
X39048Y189111D01*
X37630Y187263D01*
X36618Y184821D01*
X36273Y182200D01*
X36618Y179579D01*
X37630Y177137D01*
X39239Y175039D01*
X39957Y174489D01*
X39525Y173219D01*
X33300D01*
X31724Y172906D01*
X30387Y172013D01*
X24565Y166190D01*
X23621Y166582D01*
X21000Y166927D01*
X18379Y166582D01*
X15937Y165570D01*
X13839Y163961D01*
X12230Y161863D01*
X11218Y159421D01*
X10873Y156800D01*
X11218Y154179D01*
X12230Y151737D01*
X13839Y149639D01*
X15937Y148030D01*
X18379Y147018D01*
X21000Y146673D01*
X23621Y147018D01*
X26063Y148030D01*
X28161Y149639D01*
X29770Y151737D01*
X30782Y154179D01*
X31127Y156800D01*
X30782Y159421D01*
X30391Y160365D01*
X35006Y164981D01*
X38660D01*
X39048Y163711D01*
X37630Y161863D01*
X36618Y159421D01*
X36273Y156800D01*
X36618Y154179D01*
X37630Y151737D01*
X39048Y149889D01*
X38660Y148619D01*
X34100D01*
X32524Y148306D01*
X31187Y147413D01*
X24565Y140791D01*
X23621Y141182D01*
X21000Y141527D01*
X18379Y141182D01*
X15937Y140170D01*
X13839Y138561D01*
X12230Y136463D01*
X11218Y134021D01*
X10873Y131400D01*
X11218Y128779D01*
X12230Y126337D01*
X13839Y124239D01*
X14305Y123882D01*
X14254Y122321D01*
X13793Y122013D01*
X5787Y114008D01*
X4894Y112671D01*
X4879Y112595D01*
X3609Y112720D01*
Y293736D01*
X3609Y293750D01*
X3609Y295000D01*
X3686Y296238D01*
X3976Y299182D01*
X5196Y303203D01*
X7176Y306909D01*
X9842Y310158D01*
X13091Y312824D01*
X16797Y314804D01*
X20818Y316024D01*
X24847Y316421D01*
X25000Y316391D01*
X261419D01*
X261696Y316336D01*
X263078Y316610D01*
X264249Y317393D01*
X265031Y318564D01*
X265107Y318575D01*
X266090Y317439D01*
D02*
G37*
G36*
X130510Y237705D02*
X133000Y237378D01*
X192390D01*
X192821Y236108D01*
X191513Y235104D01*
X176031Y219622D01*
X148916D01*
X148320Y220080D01*
X145513Y221243D01*
X144767Y221341D01*
X129259Y236849D01*
X129979Y237925D01*
X130510Y237705D01*
D02*
G37*
G36*
X66537Y282630D02*
X68979Y281618D01*
X71484Y281289D01*
X71868Y280730D01*
X72150Y280158D01*
X66921Y274929D01*
X66537Y274770D01*
X64439Y273161D01*
X62830Y271063D01*
X61818Y268621D01*
X61473Y266000D01*
X61818Y263379D01*
X62830Y260937D01*
X64439Y258839D01*
X66537Y257230D01*
X66921Y257071D01*
X92520Y231472D01*
X94513Y229943D01*
X96833Y228982D01*
X99324Y228654D01*
X110238D01*
X131159Y207733D01*
X131257Y206987D01*
X132420Y204180D01*
X134270Y201770D01*
X136680Y199920D01*
X139487Y198757D01*
X142500Y198361D01*
X145513Y198757D01*
X148320Y199920D01*
X148916Y200378D01*
X180017D01*
X182507Y200706D01*
X183469Y201104D01*
X184828Y201667D01*
X186821Y203196D01*
X198624Y214999D01*
X199701Y214279D01*
X199680Y214229D01*
X199554Y213270D01*
X208000D01*
Y212000D01*
X209270D01*
Y203463D01*
X218367Y194366D01*
X220034Y193252D01*
X222000Y192861D01*
X241346D01*
X241465Y192781D01*
X242357Y192604D01*
Y198000D01*
X244897D01*
Y192604D01*
X245788Y192781D01*
X245908Y192861D01*
X266427D01*
X266953Y191591D01*
X259326Y183964D01*
X258213Y182297D01*
X257821Y180330D01*
Y173040D01*
X258213Y171073D01*
X259326Y169406D01*
X263733Y165000D01*
X253871Y155138D01*
X244281D01*
X244161Y155218D01*
X241999Y155648D01*
X239838Y155218D01*
X238005Y153994D01*
X237389Y153071D01*
X236125Y152946D01*
X223906Y165165D01*
X224031Y166429D01*
X224355Y166645D01*
X225690Y168643D01*
X226158Y171000D01*
X225690Y173357D01*
X224355Y175355D01*
X204085Y195625D01*
X202087Y196960D01*
X199730Y197428D01*
X197373Y196960D01*
X197312Y196919D01*
X99541D01*
X95238Y201222D01*
X95724Y202395D01*
X98790D01*
X99270Y201770D01*
X101680Y199920D01*
X104487Y198757D01*
X106230Y198528D01*
Y210000D01*
Y221472D01*
X104487Y221243D01*
X101680Y220080D01*
X99270Y218230D01*
X98790Y217605D01*
X94895D01*
X58322Y254178D01*
X56747Y255386D01*
X54913Y256146D01*
X52945Y256405D01*
X52274D01*
X51843Y257675D01*
X53361Y258839D01*
X54970Y260937D01*
X55982Y263379D01*
X56327Y266000D01*
X55982Y268621D01*
X54970Y271063D01*
X53361Y273161D01*
X51263Y274770D01*
X48821Y275782D01*
X46315Y276111D01*
X45932Y276670D01*
X45650Y277242D01*
X50879Y282471D01*
X51263Y282630D01*
X51467Y282786D01*
X66333D01*
X66537Y282630D01*
D02*
G37*
G36*
X86382Y180292D02*
X85896Y179119D01*
X75807D01*
X74230Y178806D01*
X72894Y177913D01*
X68200Y173219D01*
X53275D01*
X52843Y174489D01*
X53561Y175039D01*
X55170Y177137D01*
X56182Y179579D01*
X56527Y182200D01*
X56182Y184821D01*
X55170Y187263D01*
X53752Y189111D01*
X54140Y190381D01*
X76294D01*
X86382Y180292D01*
D02*
G37*
G36*
X174952Y174611D02*
X173514Y174015D01*
X171938Y172807D01*
X170730Y171231D01*
X169970Y169397D01*
X169878Y168699D01*
X177316D01*
Y167429D01*
X178586D01*
Y159991D01*
X179284Y160083D01*
X181119Y160843D01*
X182694Y162051D01*
X182877Y162290D01*
X186442D01*
X189831Y158901D01*
X189205Y157730D01*
X188358Y157899D01*
X166584D01*
X149873Y174611D01*
X150399Y175881D01*
X174699D01*
X174952Y174611D01*
D02*
G37*
G36*
X314969Y318564D02*
X315751Y317393D01*
X316922Y316610D01*
X318304Y316336D01*
X318581Y316391D01*
X495000Y316391D01*
X495153Y316421D01*
X499182Y316024D01*
X503203Y314804D01*
X506909Y312824D01*
X510158Y310158D01*
X512824Y306909D01*
X514804Y303203D01*
X516024Y299182D01*
X516421Y295153D01*
X516391Y295000D01*
Y210474D01*
X515121Y210411D01*
X515080Y210820D01*
X514678Y214909D01*
X513246Y219629D01*
X510921Y223979D01*
X507792Y227792D01*
X503979Y230921D01*
X499629Y233246D01*
X494909Y234678D01*
X490000Y235161D01*
X485091Y234678D01*
X480371Y233246D01*
X476021Y230921D01*
X472208Y227792D01*
X469079Y223979D01*
X466754Y219629D01*
X465322Y214909D01*
X464839Y210000D01*
X465322Y205091D01*
X466754Y200371D01*
X469079Y196021D01*
X472208Y192208D01*
X476021Y189079D01*
X480371Y186754D01*
X485091Y185322D01*
X490000Y184839D01*
X494909Y185322D01*
X499629Y186754D01*
X503979Y189079D01*
X507792Y192208D01*
X510921Y196021D01*
X513246Y200371D01*
X514678Y205091D01*
X515080Y209180D01*
X515121Y209589D01*
X516391Y209526D01*
Y25000D01*
X516421Y24847D01*
X516024Y20818D01*
X514804Y16797D01*
X512824Y13091D01*
X510158Y9842D01*
X506909Y7176D01*
X503203Y5196D01*
X499182Y3976D01*
X495153Y3579D01*
X495000Y3609D01*
X218580Y3609D01*
X218304Y3664D01*
X216922Y3390D01*
X215751Y2607D01*
X214969Y1436D01*
X214893Y1425D01*
X213910Y2561D01*
X214678Y5091D01*
X215161Y10000D01*
X214678Y14909D01*
X213246Y19629D01*
X210921Y23979D01*
X207792Y27792D01*
X203979Y30921D01*
X199629Y33246D01*
X194909Y34678D01*
X190000Y35161D01*
X185091Y34678D01*
X180371Y33246D01*
X176021Y30921D01*
X172208Y27792D01*
X169079Y23979D01*
X166754Y19629D01*
X165322Y14909D01*
X164839Y10000D01*
X165322Y5091D01*
X166090Y2561D01*
X165107Y1425D01*
X165031Y1436D01*
X164249Y2607D01*
X163078Y3390D01*
X161696Y3664D01*
X161419Y3609D01*
X25000D01*
X24847Y3579D01*
X20818Y3976D01*
X16797Y5196D01*
X13091Y7176D01*
X9842Y9842D01*
X7176Y13091D01*
X5196Y16797D01*
X3976Y20818D01*
X3687Y23752D01*
X3609Y25000D01*
X3609Y25000D01*
X3609Y26250D01*
Y40475D01*
X4879Y40600D01*
X4894Y40524D01*
X5787Y39187D01*
X11609Y33365D01*
X11218Y32421D01*
X10873Y29800D01*
X11218Y27179D01*
X12230Y24737D01*
X13839Y22639D01*
X15937Y21030D01*
X18379Y20018D01*
X21000Y19673D01*
X23621Y20018D01*
X26063Y21030D01*
X28161Y22639D01*
X29770Y24737D01*
X30782Y27179D01*
X31127Y29800D01*
X30782Y32421D01*
X29770Y34863D01*
X28161Y36961D01*
X26063Y38570D01*
X23621Y39582D01*
X21000Y39927D01*
X18379Y39582D01*
X17435Y39190D01*
X12819Y43806D01*
Y47460D01*
X14089Y47848D01*
X15937Y46430D01*
X18379Y45418D01*
X21000Y45073D01*
X23621Y45418D01*
X24565Y45809D01*
X30387Y39987D01*
X31724Y39094D01*
X33300Y38781D01*
X36360D01*
Y20010D01*
X56440D01*
Y38781D01*
X56900D01*
X58476Y39094D01*
X59813Y39987D01*
X67913Y48087D01*
X68806Y49424D01*
X69119Y51000D01*
Y60216D01*
X115034Y106131D01*
X144905D01*
X146482Y106444D01*
X147818Y107337D01*
X148711Y108674D01*
X148910Y109677D01*
X157638Y118405D01*
X173340D01*
X217939Y73806D01*
X218025Y73749D01*
X218761Y72755D01*
X218348Y72121D01*
X217542Y70915D01*
X217395Y70175D01*
X216180Y69806D01*
X190821Y95164D01*
X189455Y96213D01*
X187864Y96872D01*
X186157Y97096D01*
X179750D01*
X178043Y96872D01*
X176452Y96213D01*
X175086Y95164D01*
X174037Y93798D01*
X173378Y92207D01*
X173154Y90500D01*
X173378Y88793D01*
X174037Y87202D01*
X175086Y85836D01*
X176452Y84787D01*
X178043Y84128D01*
X179750Y83904D01*
X183425D01*
X208150Y59178D01*
X207624Y57908D01*
X200801D01*
X192355Y66355D01*
X182877Y75832D01*
X180879Y77167D01*
X178522Y77636D01*
X176073D01*
X165355Y88355D01*
X163357Y89690D01*
X161000Y90158D01*
X158643Y89690D01*
X156645Y88355D01*
X155310Y86357D01*
X154842Y84000D01*
X155310Y81643D01*
X156645Y79645D01*
X169168Y67123D01*
X171166Y65788D01*
X173522Y65319D01*
X175972D01*
X183645Y57645D01*
X193895Y47395D01*
X195893Y46061D01*
X198250Y45592D01*
X209000D01*
X211357Y46061D01*
X213355Y47395D01*
X214690Y49393D01*
X214930Y50602D01*
X216308Y51020D01*
X221303Y46026D01*
X222669Y44977D01*
X224260Y44318D01*
X225967Y44094D01*
X301690D01*
X303397Y44318D01*
X304988Y44977D01*
X306354Y46026D01*
X308664Y48336D01*
X309713Y49702D01*
X310106Y50650D01*
X311545Y51007D01*
X343684Y18868D01*
X343684Y18868D01*
X344938Y18030D01*
X346417Y17736D01*
X365492D01*
X366093Y16285D01*
X367783Y14083D01*
X369985Y12393D01*
X372548Y11331D01*
X375300Y10969D01*
X378051Y11331D01*
X380616Y12393D01*
X382817Y14083D01*
X384507Y16285D01*
X385569Y18849D01*
X385931Y21600D01*
X385569Y24351D01*
X384507Y26916D01*
X382817Y29117D01*
X382471Y29383D01*
X382879Y30586D01*
X388150D01*
X389629Y30880D01*
X390882Y31718D01*
X396497Y37332D01*
X397948Y36731D01*
X400700Y36369D01*
X403451Y36731D01*
X406016Y37793D01*
X408217Y39483D01*
X409907Y41684D01*
X410969Y44248D01*
X411331Y47000D01*
X410969Y49752D01*
X409907Y52316D01*
X408217Y54517D01*
X406016Y56207D01*
X403451Y57269D01*
X400700Y57631D01*
X397948Y57269D01*
X395385Y56207D01*
X393183Y54517D01*
X391493Y52316D01*
X390431Y49752D01*
X390069Y47000D01*
X390431Y44248D01*
X391032Y42797D01*
X386549Y38314D01*
X383214D01*
X383043Y38819D01*
X382895Y39584D01*
X384507Y41684D01*
X385569Y44248D01*
X385931Y47000D01*
X385569Y49752D01*
X384507Y52316D01*
X382817Y54517D01*
X380616Y56207D01*
X378051Y57269D01*
X375300Y57631D01*
X372548Y57269D01*
X369985Y56207D01*
X367783Y54517D01*
X366093Y52316D01*
X365031Y49752D01*
X364669Y47000D01*
X365031Y44248D01*
X366093Y41684D01*
X367705Y39584D01*
X367557Y38819D01*
X367386Y38314D01*
X350598D01*
X316912Y72000D01*
X315659Y72838D01*
X314180Y73132D01*
X286137D01*
X285651Y74305D01*
X306022Y94677D01*
X306860Y95930D01*
X307154Y97409D01*
Y98823D01*
X308424Y99208D01*
X309395Y97756D01*
X311227Y96531D01*
X312119Y96354D01*
Y101750D01*
Y107146D01*
X311227Y106969D01*
X309395Y105744D01*
X308424Y104292D01*
X307154Y104677D01*
Y165312D01*
X306860Y166791D01*
X306022Y168045D01*
X300513Y173554D01*
X299260Y174391D01*
X297781Y174686D01*
X278779D01*
X276618Y176847D01*
X276649Y177000D01*
X276219Y179162D01*
X274994Y180994D01*
X274485Y181334D01*
X274199Y182998D01*
X274518Y183421D01*
X318370D01*
X318969Y182301D01*
X318547Y181670D01*
X318370Y180779D01*
X323766D01*
Y179509D01*
X325036D01*
Y173646D01*
X325560Y173216D01*
Y158360D01*
X345640D01*
Y167870D01*
X345654Y167905D01*
X345948Y170134D01*
Y192985D01*
X347106Y193610D01*
X350960Y189567D01*
Y183760D01*
X369178D01*
Y176146D01*
X367908Y175755D01*
X366063Y177170D01*
X363621Y178182D01*
X361000Y178527D01*
X358379Y178182D01*
X355937Y177170D01*
X353839Y175561D01*
X352230Y173463D01*
X351218Y171021D01*
X350873Y168400D01*
X351218Y165779D01*
X352230Y163337D01*
X353839Y161239D01*
X355937Y159630D01*
X358379Y158618D01*
X360885Y158289D01*
X361268Y157730D01*
X361550Y157158D01*
X357432Y153040D01*
X350960D01*
Y132960D01*
X371040D01*
Y139432D01*
X385604Y153996D01*
X387133Y155989D01*
X388094Y158310D01*
X388422Y160800D01*
Y206200D01*
X388094Y208690D01*
X387133Y211011D01*
X385604Y213004D01*
X344804Y253804D01*
X343083Y255124D01*
X343366Y256317D01*
X343409Y256394D01*
X349950D01*
X394722Y211622D01*
X394723Y211622D01*
X403395Y202950D01*
Y193000D01*
Y152150D01*
X397622Y146378D01*
X397622Y146378D01*
X396414Y144803D01*
X395654Y142968D01*
X395395Y141000D01*
X395654Y139032D01*
X396414Y137197D01*
X397622Y135622D01*
X399198Y134414D01*
X401032Y133654D01*
X403000Y133395D01*
X404968Y133654D01*
X406802Y134414D01*
X408378Y135622D01*
X416378Y143622D01*
X417586Y145197D01*
X418346Y147032D01*
X418605Y149000D01*
Y193000D01*
Y206100D01*
X418346Y208068D01*
X417586Y209903D01*
X416378Y211478D01*
X405478Y222377D01*
X405478Y222378D01*
X358478Y269377D01*
X356903Y270586D01*
X355069Y271345D01*
X353101Y271604D01*
X310554D01*
X310028Y272875D01*
X312540Y275386D01*
X416000D01*
X418229Y275680D01*
X420307Y276540D01*
X422091Y277909D01*
X423460Y279693D01*
X424320Y281771D01*
X424614Y284000D01*
X424320Y286229D01*
X423460Y288307D01*
X422091Y290091D01*
X420307Y291460D01*
X418229Y292320D01*
X416000Y292614D01*
X309767D01*
X309167Y293884D01*
X310921Y296021D01*
X313246Y300371D01*
X314678Y305091D01*
X315161Y310000D01*
X314678Y314909D01*
X313910Y317439D01*
X314893Y318575D01*
X314969Y318564D01*
D02*
G37*
G36*
X289420Y165687D02*
X282366Y158634D01*
X281252Y156966D01*
X280861Y155000D01*
Y129281D01*
X280781Y129162D01*
X280352Y127000D01*
X280781Y124838D01*
X281053Y124433D01*
Y106747D01*
X273440Y99134D01*
X273299Y99106D01*
X271466Y97882D01*
X270242Y96049D01*
X269888Y94273D01*
X268000Y94649D01*
X265838Y94219D01*
X264006Y92994D01*
X262781Y91162D01*
X262351Y89000D01*
X262591Y87797D01*
X261674Y86385D01*
X260838Y86218D01*
X259005Y84994D01*
X258198Y84914D01*
X254256Y88856D01*
X254593Y90316D01*
X256006Y91260D01*
X257231Y93093D01*
X257649Y95198D01*
X257958Y96431D01*
X260119Y96861D01*
X261952Y98086D01*
X263176Y99918D01*
X263606Y102080D01*
X263176Y104242D01*
X261952Y106074D01*
X260119Y107298D01*
X258555Y107610D01*
X257453Y108580D01*
X257164Y110035D01*
X259004Y110401D01*
X260836Y111626D01*
X262061Y113458D01*
X262439Y115362D01*
X264000Y115051D01*
X266161Y115481D01*
X267994Y116706D01*
X269218Y118538D01*
X269648Y120700D01*
X269218Y122862D01*
X267994Y124694D01*
X266161Y125919D01*
X264000Y126348D01*
X263107Y126171D01*
X248660Y140617D01*
X247610Y141319D01*
X246371Y141566D01*
X241530D01*
X240735Y142836D01*
X240826Y143290D01*
X241999Y144351D01*
X242243Y144400D01*
X244161Y144781D01*
X244281Y144861D01*
X256000D01*
X257966Y145252D01*
X259633Y146366D01*
X273021Y159753D01*
X273162Y159781D01*
X274994Y161006D01*
X276219Y162838D01*
X276649Y165000D01*
X276452Y165988D01*
X277554Y166957D01*
X289059D01*
X289420Y165687D01*
D02*
G37*
G36*
X83366Y113312D02*
X83659Y111838D01*
X84884Y110006D01*
X86283Y109071D01*
X86614Y107605D01*
X76828Y97819D01*
X54140D01*
X53752Y99089D01*
X55170Y100937D01*
X55827Y102523D01*
X61599D01*
X63175Y102837D01*
X64511Y103730D01*
X78730Y117949D01*
X83366Y113312D01*
D02*
G37*
G36*
X39957Y113711D02*
X39239Y113161D01*
X37630Y111063D01*
X36618Y108621D01*
X36273Y106000D01*
X36618Y103379D01*
X37630Y100937D01*
X39048Y99089D01*
X38660Y97819D01*
X34100D01*
X32524Y97506D01*
X31187Y96613D01*
X24565Y89991D01*
X23621Y90382D01*
X21000Y90727D01*
X18379Y90382D01*
X15937Y89370D01*
X14089Y87952D01*
X12819Y88340D01*
Y98260D01*
X14089Y98648D01*
X15937Y97230D01*
X18379Y96218D01*
X21000Y95873D01*
X23621Y96218D01*
X26063Y97230D01*
X28161Y98839D01*
X29770Y100937D01*
X30782Y103379D01*
X31127Y106000D01*
X30782Y108621D01*
X29770Y111063D01*
X28161Y113161D01*
X27443Y113711D01*
X27875Y114981D01*
X39525D01*
X39957Y113711D01*
D02*
G37*
G36*
X216639Y103533D02*
X217689Y102831D01*
X218928Y102585D01*
X220837D01*
X223711Y99711D01*
X224761Y99009D01*
X226000Y98763D01*
X228831D01*
X230005Y97006D01*
X231838Y95781D01*
X234000Y95351D01*
X236161Y95781D01*
X237487Y96667D01*
X237885Y96071D01*
X246160Y87796D01*
X245876Y87236D01*
X245411Y86749D01*
X244372Y86956D01*
X232633D01*
X232615Y86952D01*
X224725D01*
X202661Y109016D01*
X202842Y109669D01*
X203192Y110281D01*
X204629Y110567D01*
X206010Y111490D01*
X206361Y112015D01*
X207992Y112180D01*
X216639Y103533D01*
D02*
G37*
G36*
X271423Y80709D02*
X278790D01*
X279462Y80842D01*
X280088Y79672D01*
X275302Y74886D01*
X275149Y74916D01*
X272987Y74486D01*
X271155Y73262D01*
X269930Y71430D01*
X269500Y69268D01*
X269930Y67106D01*
X271155Y65274D01*
X272407Y64437D01*
X272651Y62971D01*
X272623Y62881D01*
X270816Y61074D01*
X266386D01*
X265788Y62194D01*
X266218Y62838D01*
X266648Y65000D01*
X266218Y67161D01*
X264994Y68994D01*
X263161Y70218D01*
X261000Y70648D01*
X260106Y70471D01*
X252889Y77688D01*
Y78438D01*
X252682Y79478D01*
X253169Y79943D01*
X253730Y80226D01*
X255245Y78711D01*
X256296Y78009D01*
X257534Y77763D01*
X258500D01*
X259005Y77006D01*
X260838Y75781D01*
X262999Y75351D01*
X265161Y75781D01*
X266994Y77006D01*
X268218Y78838D01*
X268492Y80217D01*
X269362Y81013D01*
X269849Y81022D01*
X271423Y80709D01*
D02*
G37*
G36*
X39957Y88311D02*
X39239Y87761D01*
X37630Y85663D01*
X36618Y83221D01*
X36273Y80600D01*
X36618Y77979D01*
X37630Y75537D01*
X39239Y73439D01*
X41337Y71830D01*
X43779Y70818D01*
X46400Y70473D01*
X49021Y70818D01*
X51463Y71830D01*
X53561Y73439D01*
X55170Y75537D01*
X55561Y76481D01*
X66035D01*
X66521Y75307D01*
X53573Y62360D01*
X53561Y62361D01*
X51463Y63970D01*
X49021Y64982D01*
X46400Y65327D01*
X43779Y64982D01*
X41337Y63970D01*
X39239Y62361D01*
X37630Y60263D01*
X36618Y57821D01*
X36273Y55200D01*
X36618Y52579D01*
X37630Y50137D01*
X39048Y48289D01*
X38660Y47019D01*
X35006D01*
X30391Y51635D01*
X30782Y52579D01*
X31127Y55200D01*
X30782Y57821D01*
X29770Y60263D01*
X28161Y62361D01*
X26063Y63970D01*
X23621Y64982D01*
X21000Y65327D01*
X18379Y64982D01*
X15937Y63970D01*
X14089Y62552D01*
X12819Y62940D01*
Y72860D01*
X14089Y73248D01*
X15937Y71830D01*
X18379Y70818D01*
X21000Y70473D01*
X23621Y70818D01*
X26063Y71830D01*
X28161Y73439D01*
X29770Y75537D01*
X30782Y77979D01*
X31127Y80600D01*
X30782Y83221D01*
X30391Y84165D01*
X35806Y89581D01*
X39525D01*
X39957Y88311D01*
D02*
G37*
G36*
X346265Y31718D02*
X346265Y31718D01*
X347519Y30880D01*
X348998Y30586D01*
X367721D01*
X368129Y29383D01*
X367783Y29117D01*
X366093Y26916D01*
X365492Y25464D01*
X348017D01*
X309959Y63522D01*
X309044Y64134D01*
X309430Y65404D01*
X312579D01*
X346265Y31718D01*
D02*
G37*
%LPC*%
G36*
X19530Y301359D02*
X18179Y301182D01*
X15737Y300170D01*
X13639Y298561D01*
X12030Y296463D01*
X11018Y294021D01*
X10841Y292670D01*
X19530D01*
Y301359D01*
D02*
G37*
G36*
X205940Y286540D02*
X195670D01*
Y276270D01*
X205940D01*
Y286540D01*
D02*
G37*
G36*
X193130D02*
X182860D01*
Y276270D01*
X193130D01*
Y286540D01*
D02*
G37*
G36*
X231340D02*
X208260D01*
Y263460D01*
X231340D01*
Y286540D01*
D02*
G37*
G36*
X205940Y273730D02*
X195670D01*
Y263460D01*
X205940D01*
Y273730D01*
D02*
G37*
G36*
X193130D02*
X182860D01*
Y263460D01*
X193130D01*
Y273730D01*
D02*
G37*
G36*
X180540Y286540D02*
X157460D01*
Y263460D01*
X180540D01*
Y286540D01*
D02*
G37*
G36*
X19730Y231730D02*
X11041D01*
X11218Y230379D01*
X12230Y227937D01*
X13839Y225839D01*
X15937Y224230D01*
X18379Y223218D01*
X19730Y223041D01*
Y231730D01*
D02*
G37*
G36*
X21000Y192327D02*
X18379Y191982D01*
X15937Y190970D01*
X13839Y189361D01*
X12230Y187263D01*
X11218Y184821D01*
X10873Y182200D01*
X11218Y179579D01*
X12230Y177137D01*
X13839Y175039D01*
X15937Y173430D01*
X18379Y172418D01*
X21000Y172073D01*
X23621Y172418D01*
X26063Y173430D01*
X28161Y175039D01*
X29770Y177137D01*
X30782Y179579D01*
X31127Y182200D01*
X30782Y184821D01*
X29770Y187263D01*
X28161Y189361D01*
X26063Y190970D01*
X23621Y191982D01*
X21000Y192327D01*
D02*
G37*
G36*
X108770Y221472D02*
Y211270D01*
X118972D01*
X118743Y213013D01*
X117580Y215820D01*
X115730Y218230D01*
X113320Y220080D01*
X110513Y221243D01*
X108770Y221472D01*
D02*
G37*
G36*
X206730Y210730D02*
X199554D01*
X199680Y209771D01*
X200540Y207693D01*
X201909Y205909D01*
X203693Y204540D01*
X205771Y203680D01*
X206730Y203554D01*
Y210730D01*
D02*
G37*
G36*
X118972Y208730D02*
X108770D01*
Y198528D01*
X110513Y198757D01*
X113320Y199920D01*
X115730Y201770D01*
X117580Y204180D01*
X118743Y206987D01*
X118972Y208730D01*
D02*
G37*
G36*
X176046Y166159D02*
X169878D01*
X169970Y165461D01*
X170730Y163626D01*
X171938Y162051D01*
X173514Y160843D01*
X175348Y160083D01*
X176046Y159991D01*
Y166159D01*
D02*
G37*
G36*
X484100Y282648D02*
X480826Y282217D01*
X477776Y280954D01*
X475156Y278944D01*
X473146Y276324D01*
X471883Y273274D01*
X471452Y270000D01*
X471883Y266726D01*
X473146Y263676D01*
X475156Y261056D01*
X477776Y259046D01*
X480826Y257783D01*
X484100Y257352D01*
X487374Y257783D01*
X490424Y259046D01*
X493044Y261056D01*
X495054Y263676D01*
X496317Y266726D01*
X496748Y270000D01*
X496317Y273274D01*
X495054Y276324D01*
X493044Y278944D01*
X490424Y280954D01*
X487374Y282217D01*
X484100Y282648D01*
D02*
G37*
G36*
X446000D02*
X442726Y282217D01*
X439676Y280954D01*
X437056Y278944D01*
X435046Y276324D01*
X433783Y273274D01*
X433352Y270000D01*
X433783Y266726D01*
X435046Y263676D01*
X437056Y261056D01*
X439676Y259046D01*
X442726Y257783D01*
X446000Y257352D01*
X449274Y257783D01*
X452324Y259046D01*
X454944Y261056D01*
X456954Y263676D01*
X458217Y266726D01*
X458648Y270000D01*
X458217Y273274D01*
X456954Y276324D01*
X454944Y278944D01*
X452324Y280954D01*
X449274Y282217D01*
X446000Y282648D01*
D02*
G37*
G36*
X322496Y178239D02*
X318370D01*
X318547Y177347D01*
X319772Y175515D01*
X321604Y174290D01*
X322496Y174113D01*
Y178239D01*
D02*
G37*
G36*
X466520Y173396D02*
Y169270D01*
X470646D01*
X470469Y170162D01*
X469244Y171994D01*
X467412Y173219D01*
X466520Y173396D01*
D02*
G37*
G36*
X463980D02*
X463088Y173219D01*
X461256Y171994D01*
X460031Y170162D01*
X459854Y169270D01*
X463980D01*
Y173396D01*
D02*
G37*
G36*
X470646Y166730D02*
X466520D01*
Y162604D01*
X467412Y162781D01*
X469244Y164006D01*
X470469Y165838D01*
X470646Y166730D01*
D02*
G37*
G36*
X463980D02*
X459854D01*
X460031Y165838D01*
X461256Y164006D01*
X463088Y162781D01*
X463980Y162604D01*
Y166730D01*
D02*
G37*
G36*
X314659Y107146D02*
Y103020D01*
X318785D01*
X318607Y103912D01*
X317383Y105744D01*
X315550Y106969D01*
X314659Y107146D01*
D02*
G37*
G36*
X318785Y100480D02*
X314659D01*
Y96354D01*
X315550Y96531D01*
X317383Y97756D01*
X318607Y99588D01*
X318785Y100480D01*
D02*
G37*
G36*
X136000Y101622D02*
X133510Y101294D01*
X131189Y100333D01*
X129196Y98804D01*
X127667Y96811D01*
X126706Y94490D01*
X126378Y92000D01*
X126706Y89509D01*
X127667Y87189D01*
X129196Y85196D01*
X131189Y83667D01*
X133510Y82705D01*
X136000Y82378D01*
X138490Y82705D01*
X140811Y83667D01*
X142804Y85196D01*
X144333Y87189D01*
X145295Y89509D01*
X145622Y92000D01*
X145295Y94490D01*
X144333Y96811D01*
X142804Y98804D01*
X140811Y100333D01*
X138490Y101294D01*
X136000Y101622D01*
D02*
G37*
G36*
X400700Y83031D02*
X397948Y82669D01*
X395385Y81607D01*
X393183Y79917D01*
X391493Y77716D01*
X390431Y75152D01*
X390069Y72400D01*
X390431Y69648D01*
X391493Y67084D01*
X393183Y64883D01*
X395385Y63193D01*
X397948Y62131D01*
X400700Y61769D01*
X403451Y62131D01*
X406016Y63193D01*
X408217Y64883D01*
X409907Y67084D01*
X410969Y69648D01*
X411331Y72400D01*
X410969Y75152D01*
X409907Y77716D01*
X408217Y79917D01*
X406016Y81607D01*
X403451Y82669D01*
X400700Y83031D01*
D02*
G37*
G36*
X375300D02*
X372548Y82669D01*
X369985Y81607D01*
X367783Y79917D01*
X366093Y77716D01*
X365031Y75152D01*
X364669Y72400D01*
X365031Y69648D01*
X366093Y67084D01*
X367783Y64883D01*
X369985Y63193D01*
X372548Y62131D01*
X375300Y61769D01*
X378051Y62131D01*
X380616Y63193D01*
X382817Y64883D01*
X384507Y67084D01*
X385569Y69648D01*
X385931Y72400D01*
X385569Y75152D01*
X384507Y77716D01*
X382817Y79917D01*
X380616Y81607D01*
X378051Y82669D01*
X375300Y83031D01*
D02*
G37*
G36*
X484100Y62648D02*
X480826Y62217D01*
X477776Y60954D01*
X475156Y58944D01*
X473146Y56324D01*
X471883Y53274D01*
X471452Y50000D01*
X471883Y46726D01*
X473146Y43676D01*
X475156Y41056D01*
X477776Y39046D01*
X480826Y37783D01*
X484100Y37352D01*
X487374Y37783D01*
X490424Y39046D01*
X493044Y41056D01*
X495054Y43676D01*
X496317Y46726D01*
X496748Y50000D01*
X496317Y53274D01*
X495054Y56324D01*
X493044Y58944D01*
X490424Y60954D01*
X487374Y62217D01*
X484100Y62648D01*
D02*
G37*
G36*
X446000D02*
X442726Y62217D01*
X439676Y60954D01*
X437056Y58944D01*
X435046Y56324D01*
X433783Y53274D01*
X433352Y50000D01*
X433783Y46726D01*
X435046Y43676D01*
X437056Y41056D01*
X439676Y39046D01*
X442726Y37783D01*
X446000Y37352D01*
X449274Y37783D01*
X452324Y39046D01*
X454944Y41056D01*
X456954Y43676D01*
X458217Y46726D01*
X458648Y50000D01*
X458217Y53274D01*
X456954Y56324D01*
X454944Y58944D01*
X452324Y60954D01*
X449274Y62217D01*
X446000Y62648D01*
D02*
G37*
G36*
X136000Y54122D02*
X133510Y53794D01*
X131189Y52833D01*
X129196Y51304D01*
X127667Y49311D01*
X126706Y46990D01*
X126378Y44500D01*
X126706Y42010D01*
X127667Y39689D01*
X129196Y37696D01*
X131189Y36167D01*
X133510Y35206D01*
X136000Y34878D01*
X138490Y35206D01*
X140811Y36167D01*
X142804Y37696D01*
X144333Y39689D01*
X145295Y42010D01*
X145622Y44500D01*
X145295Y46990D01*
X144333Y49311D01*
X142804Y51304D01*
X140811Y52833D01*
X138490Y53794D01*
X136000Y54122D01*
D02*
G37*
G36*
X401970Y32064D02*
Y22870D01*
X411164D01*
X410969Y24351D01*
X409907Y26916D01*
X408217Y29117D01*
X406016Y30807D01*
X403451Y31869D01*
X401970Y32064D01*
D02*
G37*
G36*
X399430Y32064D02*
X397948Y31869D01*
X395385Y30807D01*
X393183Y29117D01*
X391493Y26916D01*
X390431Y24351D01*
X390236Y22870D01*
X399430D01*
Y32064D01*
D02*
G37*
G36*
X411164Y20330D02*
X401970D01*
Y11136D01*
X403451Y11331D01*
X406016Y12393D01*
X408217Y14083D01*
X409907Y16285D01*
X410969Y18849D01*
X411164Y20330D01*
D02*
G37*
G36*
X399430D02*
X390236D01*
X390431Y18849D01*
X391493Y16285D01*
X393183Y14083D01*
X395385Y12393D01*
X397948Y11331D01*
X399430Y11136D01*
Y20330D01*
D02*
G37*
%LPD*%
D11*
X275149Y69268D02*
X303290Y97409D01*
Y165312D01*
X297781Y170821D02*
X303290Y165312D01*
X277179Y170821D02*
X297781D01*
X271000Y177000D02*
X277179Y170821D01*
X222761Y68753D02*
X229643D01*
X346417Y21600D02*
X375300D01*
X307227Y60790D02*
X346417Y21600D01*
X229643Y68753D02*
X241187Y57210D01*
X275997Y60790D02*
X307227D01*
X272417Y57210D02*
X275997Y60790D01*
X241187Y57210D02*
X272417D01*
X348998Y34450D02*
X388150D01*
X275149Y69268D02*
X314180D01*
X348998Y34450D01*
X388150D02*
X400700Y47000D01*
D12*
X96480Y191270D02*
X199730D01*
D13*
X202000Y114500D02*
G03*
X203000Y113500I1000J0D01*
G01*
X198000Y117000D02*
G03*
X196750Y118250I-1250J0D01*
G01*
X198000Y114500D02*
G03*
X199000Y113500I1000J0D01*
G01*
D02*
G03*
X200000Y114500I0J1000D01*
G01*
X205291Y118291D02*
G03*
X204000Y117000I0J-1291D01*
G01*
X203000Y113500D02*
G03*
X204000Y114500I0J1000D01*
G01*
X201000Y118291D02*
G03*
X200000Y117291I0J-1000D01*
G01*
X202000D02*
G03*
X201000Y118291I-1000J0D01*
G01*
X257534Y81000D02*
X262999D01*
X240175Y98360D02*
X257534Y81000D01*
X215385Y148825D02*
X225881Y138328D01*
X214333Y146285D02*
X224829Y135788D01*
X213281Y143745D02*
X223777Y133248D01*
X192091Y143745D02*
X213281D01*
X212229Y141205D02*
X239626Y113808D01*
X191039Y141205D02*
X212229D01*
X211177Y138665D02*
X237086Y112756D01*
X189987Y138665D02*
X211177D01*
X210124Y136125D02*
X234546Y111704D01*
X188935Y136125D02*
X210124D01*
X204266Y133250D02*
X209260Y128256D01*
X188217Y133250D02*
X204266D01*
X193143Y146285D02*
X214333D01*
X202000Y114500D02*
Y117291D01*
X200000Y114500D02*
Y117291D01*
X198000Y114500D02*
Y117000D01*
X204000Y114500D02*
Y117000D01*
X205291Y118291D02*
X206459D01*
X192400D02*
X196750Y118250D01*
X144905Y125250D02*
X146313D01*
X150325Y129262D02*
X177837D01*
X146313Y125250D02*
X150325Y129262D01*
X144905Y110250D02*
X156297Y121642D01*
X174681D02*
X220228Y76095D01*
X156297Y121642D02*
X174681D01*
X220228Y76095D02*
X229277D01*
X153837Y124182D02*
X175733D01*
X221280Y78635D01*
X237130D01*
X144905Y115250D02*
X153837Y124182D01*
X144905Y120250D02*
X151377Y126722D01*
X176785D02*
X222332Y81175D01*
X151377Y126722D02*
X176785D01*
X222332Y81175D02*
X238200D01*
X223384Y83715D02*
X232629D01*
X177837Y129262D02*
X223384Y83715D01*
X192306Y130710D02*
X196010Y127006D01*
X187165Y130710D02*
X192306D01*
X180993Y136882D02*
X187165Y130710D01*
X194195Y148825D02*
X215385D01*
X225881Y138328D02*
X246371D01*
X224829Y135788D02*
X236674D01*
X239626Y112026D02*
Y113808D01*
Y112026D02*
X249572Y102080D01*
X237086Y110239D02*
Y112756D01*
Y110239D02*
X252012Y95312D01*
X148115Y131802D02*
X178889D01*
X146563Y130250D02*
X148115Y131802D01*
X144862Y130250D02*
X146563D01*
X183097Y141962D02*
X188935Y136125D01*
X234546Y109186D02*
Y111704D01*
Y109186D02*
X240175Y103558D01*
X184150Y144502D02*
X189987Y138665D01*
X185202Y147042D02*
X191039Y141205D01*
X186254Y149582D02*
X192091Y143745D01*
X223777Y133248D02*
X227136D01*
X251805Y108580D01*
X187306Y152122D02*
X193143Y146285D01*
X236674Y135788D02*
X256842Y115620D01*
X188358Y154662D02*
X194195Y148825D01*
X246371Y138328D02*
X264000Y120700D01*
X206459Y118291D02*
X207875Y116875D01*
X144528Y135250D02*
X145436Y134342D01*
X144905Y160000D02*
X157863Y147042D01*
X226000Y102000D02*
X230891D01*
X230986Y101905D01*
X233095D01*
X234000Y101000D01*
X207875Y116875D02*
X218928Y105822D01*
X222178D02*
X226000Y102000D01*
X218928Y105822D02*
X222178D01*
X240175Y98360D02*
Y103558D01*
X252012Y95255D02*
Y95312D01*
X219980Y108362D02*
X228371D01*
X207511Y120831D02*
X219980Y108362D01*
X249572Y102080D02*
X257958D01*
X249652Y76347D02*
X260999Y65000D01*
X249652Y76347D02*
Y78438D01*
X244372Y83719D02*
X249652Y78438D01*
X247112Y70136D02*
Y77386D01*
X243319Y81179D02*
X247112Y77386D01*
X237130Y78635D02*
X240762Y75004D01*
X238204Y81179D02*
X243319D01*
X247112Y70136D02*
X252000Y65248D01*
X238200Y81175D02*
X238204Y81179D01*
X232633Y83719D02*
X244372D01*
X260999Y65000D02*
X261000D01*
X232629Y83715D02*
X232633Y83719D01*
X178889Y131802D02*
X192400Y118291D01*
X165243Y154662D02*
X188358D01*
X144905Y175000D02*
X165243Y154662D01*
X160323Y149582D02*
X186254D01*
X144706Y165199D02*
X160323Y149582D01*
X152943Y141962D02*
X183097D01*
X144743Y150162D02*
X152943Y141962D01*
X150483Y139422D02*
X182045D01*
X144905Y145000D02*
X150483Y139422D01*
X145436Y134342D02*
X179941D01*
X148023Y136882D02*
X180993D01*
X144905Y140000D02*
X148023Y136882D01*
X157863Y147042D02*
X185202D01*
X155403Y144502D02*
X184150D01*
X162783Y152122D02*
X187306D01*
X229277Y76095D02*
X238742Y66630D01*
X241885D01*
X242512Y66003D01*
X182045Y139422D02*
X188217Y133250D01*
X252000Y64000D02*
Y65248D01*
X179941Y134342D02*
X193452Y120831D01*
X207511D01*
X144905Y170000D02*
X162783Y152122D01*
X144905Y155000D02*
X155403Y144502D01*
D15*
X67000Y203000D02*
G03*
X69000Y205000I0J2000D01*
G01*
D02*
G03*
X67000Y207000I-2000J0D01*
G01*
X62000Y201000D02*
G03*
X64000Y199000I2000J0D01*
G01*
Y203000D02*
G03*
X62000Y201000I0J-2000D01*
G01*
X46400Y207600D02*
G03*
X47000Y207000I600J0D01*
G01*
X33300Y42900D02*
X56900D01*
X65000Y51000D02*
Y61923D01*
X56900Y42900D02*
X65000Y51000D01*
Y61923D02*
X113327Y110250D01*
X144905D01*
X112289Y115250D02*
X144905D01*
X54535Y57496D02*
X112289Y115250D01*
X46400Y55200D02*
X48696Y57496D01*
X54535D01*
X80270Y137193D02*
X83077Y140000D01*
X80270Y122234D02*
X88504Y114000D01*
X80270Y122234D02*
Y137193D01*
X83077Y140000D02*
X144905D01*
X76000Y121044D02*
Y138961D01*
X82039Y145000D02*
X144905D01*
X76000Y138961D02*
X82039Y145000D01*
X61599Y106643D02*
X76000Y121044D01*
X33300Y169100D02*
X69907D01*
X75807Y175000D02*
X144905D01*
X69907Y169100D02*
X75807Y175000D01*
X46400Y156800D02*
X63645D01*
X76845Y170000D02*
X144905D01*
X63645Y156800D02*
X76845Y170000D01*
X34100Y144500D02*
X57384D01*
X78083Y165199D02*
X144706D01*
X57384Y144500D02*
X78083Y165199D01*
X78923Y160000D02*
X144905D01*
X53847Y134924D02*
X78923Y160000D01*
X46400Y131400D02*
X49647D01*
X53171Y134924D01*
X53847D01*
X67294Y142333D02*
X79961Y155000D01*
X67294Y134294D02*
Y142333D01*
X79961Y155000D02*
X144905D01*
X21000Y55200D02*
X33300Y42900D01*
X110084Y125250D02*
X144905D01*
X78534Y93700D02*
X110084Y125250D01*
X101000Y110000D02*
Y110000D01*
X111250Y120250D02*
X144905D01*
X101000Y110000D02*
X111250Y120250D01*
X46400Y80600D02*
X71600D01*
X101000Y110000D01*
X21000Y80600D02*
X34100Y93700D01*
X78534D01*
X88504Y114000D02*
X88878D01*
X71564Y126564D02*
Y140564D01*
X81162Y150162D01*
X144743D01*
X52100Y119100D02*
X67294Y134294D01*
X59000Y114000D02*
Y114000D01*
X71564Y126564D01*
X47043Y106643D02*
X61599D01*
X16705Y119100D02*
X52100D01*
X8700Y42100D02*
X21000Y29800D01*
X8700Y111095D02*
X16705Y119100D01*
X8700Y42100D02*
Y111095D01*
X46400Y106000D02*
X47043Y106643D01*
X21000Y131400D02*
X34100Y144500D01*
X21000Y156800D02*
X33300Y169100D01*
X63752Y198925D02*
X79769Y198770D01*
X47000Y207000D02*
X67000D01*
X64000Y203000D02*
X67000D01*
Y207000D02*
X67000D01*
X67000Y203000D02*
X67000D01*
X79769Y198770D02*
X94269Y184270D01*
X196774D01*
X21000Y207600D02*
X21000D01*
X234845Y145077D02*
X235419Y144503D01*
X193290Y180000D02*
X226290Y147000D01*
X234845Y145077D02*
Y147199D01*
X234671Y147372D02*
X234845Y147199D01*
X234671Y147372D02*
Y148575D01*
X219286Y163960D02*
X234671Y148575D01*
X78000Y194500D02*
X92500Y180000D01*
X34100Y194500D02*
X78000D01*
X21000Y207600D02*
X34100Y194500D01*
X217084Y163960D02*
X219286D01*
X196774Y184270D02*
X217084Y163960D01*
X92500Y180000D02*
X193290D01*
X97562Y130250D02*
X144862D01*
X89886Y122574D02*
X97562Y130250D01*
X90917Y132000D02*
X94167Y135250D01*
X89000Y132000D02*
X90917D01*
X94167Y135250D02*
X144528D01*
D49*
X375300Y72400D02*
D03*
Y47000D02*
D03*
Y21600D02*
D03*
X400700D02*
D03*
Y47000D02*
D03*
Y72400D02*
D03*
D54*
X21000Y233000D02*
D03*
X46400D02*
D03*
X21000Y207600D02*
D03*
X46400D02*
D03*
X21000Y182200D02*
D03*
X46400D02*
D03*
X21000Y156800D02*
D03*
X46400D02*
D03*
X21000Y131400D02*
D03*
X46400D02*
D03*
X21000Y106000D02*
D03*
X46400D02*
D03*
X21000Y80600D02*
D03*
X46400D02*
D03*
X21000Y55200D02*
D03*
X46400D02*
D03*
X21000Y29800D02*
D03*
X361000Y168400D02*
D03*
D03*
D03*
X122400Y291400D02*
D03*
X97000D02*
D03*
X71600D02*
D03*
X46200D02*
D03*
X20800D02*
D03*
X122400Y266000D02*
D03*
X97000D02*
D03*
X71600D02*
D03*
X46200D02*
D03*
D72*
X262960Y180330D02*
X271190Y188560D01*
X325794D01*
X241999Y150000D02*
X256000D01*
X271423Y85848D02*
X278790D01*
X268271Y89000D02*
X271423Y85848D01*
X268000Y89000D02*
X268271D01*
X222000Y198000D02*
X303040D01*
X295832Y102889D02*
Y151168D01*
X278790Y85848D02*
X295832Y102889D01*
X256000Y150000D02*
X271000Y165000D01*
X208000Y212000D02*
X222000Y198000D01*
X262960Y173040D02*
X271000Y165000D01*
X262960Y173040D02*
Y180330D01*
X275460Y93888D02*
X286191Y104619D01*
Y127000D01*
X286000D02*
Y155000D01*
X188570Y167429D02*
X201000Y155000D01*
X177316Y167429D02*
X188570D01*
X286000Y155000D02*
X293309Y162309D01*
D73*
X335600Y168400D02*
X337334Y170134D01*
Y193340D01*
X318674Y212000D02*
X337334Y193340D01*
X228000Y212000D02*
X318674D01*
X283000Y278000D02*
X283200Y278200D01*
X303172D01*
X308972Y284000D01*
X416000D01*
X97000Y291400D02*
X122400D01*
X46200D02*
X71600D01*
D74*
X186157Y90500D02*
X225967Y50690D01*
X301690D01*
X179750Y90500D02*
X186157D01*
X301690Y50690D02*
X304000Y53000D01*
D76*
X56281Y231469D02*
X96480Y191270D01*
X199730D02*
X220000Y171000D01*
X47931Y231469D02*
X56281D01*
X46400Y233000D02*
X47931Y231469D01*
X188000Y62000D02*
X198250Y51750D01*
X209000D01*
X178522Y71477D02*
X188000Y62000D01*
X161000Y84000D02*
X173522Y71477D01*
X178522D01*
D77*
X52945Y248800D02*
X91744Y210000D01*
X37020Y248800D02*
X52945D01*
X411000Y193000D02*
Y206100D01*
X400100Y217000D02*
X411000Y206100D01*
Y149000D02*
Y193000D01*
X403000Y141000D02*
X411000Y149000D01*
X353101Y264000D02*
X400100Y217000D01*
X302999Y264000D02*
X353101D01*
X21220Y233000D02*
X37020Y248800D01*
X91744Y210000D02*
X107500D01*
X21000Y233000D02*
X21220D01*
D78*
X416000Y284000D02*
D03*
X283000Y278000D02*
D03*
X411000Y193000D02*
D03*
X302999Y264000D02*
D03*
X403000Y141000D02*
D03*
X177316Y167429D02*
D03*
X359750Y257350D02*
D03*
D79*
X190000Y10000D02*
D03*
X290000Y310000D02*
D03*
X490000Y210000D02*
D03*
D80*
X46400Y29800D02*
D03*
D81*
X361000Y193800D02*
D03*
Y143000D02*
D03*
D82*
X335600Y168400D02*
D03*
X20800Y266000D02*
D03*
D83*
X484100Y50000D02*
D03*
X446000D02*
D03*
Y270000D02*
D03*
X484100D02*
D03*
D84*
X136000Y44500D02*
D03*
Y92000D02*
D03*
D85*
X107500Y210000D02*
D03*
X142500D02*
D03*
D86*
X208000Y212000D02*
D03*
X228000D02*
D03*
D87*
X169000Y275000D02*
D03*
X194400D02*
D03*
X219800D02*
D03*
D88*
X323766Y179509D02*
D03*
X325794Y188560D02*
D03*
X243627Y198000D02*
D03*
X313389Y101750D02*
D03*
X465250Y168000D02*
D03*
X262999Y81000D02*
D03*
X88878Y114000D02*
D03*
X59000Y114000D02*
D03*
X235419Y144503D02*
D03*
X226290Y147000D02*
D03*
X241999Y150000D02*
D03*
X220000Y171000D02*
D03*
X303040Y198000D02*
D03*
X89886Y122574D02*
D03*
X89000Y132000D02*
D03*
X234000Y101000D02*
D03*
X296500Y162500D02*
D03*
X295832Y151168D02*
D03*
X257958Y102080D02*
D03*
X268000Y89000D02*
D03*
X251805Y108580D02*
D03*
X256842Y115620D02*
D03*
X252012Y95255D02*
D03*
X240762Y75004D02*
D03*
X286000Y127000D02*
D03*
X179750Y90500D02*
D03*
X188000Y62000D02*
D03*
X209260Y128256D02*
D03*
X196010Y127006D02*
D03*
X228371Y108362D02*
D03*
X222761Y68753D02*
D03*
X242512Y66003D02*
D03*
X209000Y51750D02*
D03*
X201000Y155000D02*
D03*
X275149Y69268D02*
D03*
X264000Y120700D02*
D03*
X275460Y93888D02*
D03*
X252000Y64000D02*
D03*
X261000Y65000D02*
D03*
X161000Y84000D02*
D03*
X304000Y53000D02*
D03*
X271000Y165000D02*
D03*
Y177000D02*
D03*
D89*
X71600Y266000D02*
X99324Y238276D01*
X114224D02*
X142500Y210000D01*
X99324Y238276D02*
X114224D01*
X340212Y214788D02*
X360600Y193400D01*
X180017Y210000D02*
X198317Y228300D01*
X142500Y210000D02*
X180017D01*
X198317Y228300D02*
X326700D01*
X340212Y214788D01*
X122591Y257409D02*
X133000Y247000D01*
X338000D02*
X378800Y206200D01*
X133000Y247000D02*
X338000D01*
X122400Y266000D02*
X122591Y265809D01*
Y257409D02*
Y265809D01*
X20800Y266000D02*
X46200Y291400D01*
X378800Y160800D02*
Y206200D01*
X361000Y143000D02*
X378800Y160800D01*
X71600Y266000D02*
X97000Y291400D01*
M02*
