G04*
G04 #@! TF.GenerationSoftware,Altium Limited,Altium Designer,20.0.12 (288)*
G04*
G04 Layer_Color=16711935*
%FSLAX44Y44*%
%MOMM*%
G71*
G01*
G75*
%ADD46C,1.1000*%
%ADD47C,4.6000*%
%ADD48R,1.6000X1.5500*%
%ADD49C,1.6000*%
%ADD50C,1.7000*%
%ADD51R,1.6000X1.6000*%
%ADD52R,1.6000X1.6000*%
%ADD53C,2.1000*%
%ADD54C,1.5000*%
%ADD55C,1.9000*%
%ADD56C,1.3000*%
%ADD57R,1.9000X1.9000*%
%ADD58C,0.7000*%
D46*
X416000Y284000D02*
D03*
X283000Y278000D02*
D03*
X411000Y193000D02*
D03*
X302999Y264000D02*
D03*
X403000Y141000D02*
D03*
X177316Y167429D02*
D03*
X359750Y257350D02*
D03*
D47*
X190000Y10000D02*
D03*
X290000Y310000D02*
D03*
X490000Y210000D02*
D03*
D48*
X46400Y29800D02*
D03*
D49*
X21000Y233000D02*
D03*
X46400D02*
D03*
X21000Y207600D02*
D03*
X46400D02*
D03*
X21000Y182200D02*
D03*
X46400D02*
D03*
X21000Y156800D02*
D03*
X46400D02*
D03*
X21000Y131400D02*
D03*
X46400D02*
D03*
X21000Y106000D02*
D03*
X46400D02*
D03*
X21000Y80600D02*
D03*
X46400D02*
D03*
X21000Y55200D02*
D03*
X46400D02*
D03*
X21000Y29800D02*
D03*
X361000Y168400D02*
D03*
D03*
D03*
X122400Y291400D02*
D03*
X97000D02*
D03*
X71600D02*
D03*
X46200D02*
D03*
X20800D02*
D03*
X122400Y266000D02*
D03*
X97000D02*
D03*
X71600D02*
D03*
X46200D02*
D03*
D50*
X375300Y72400D02*
D03*
Y47000D02*
D03*
Y21600D02*
D03*
X400700D02*
D03*
Y47000D02*
D03*
Y72400D02*
D03*
D51*
X361000Y193800D02*
D03*
Y143000D02*
D03*
D52*
X335600Y168400D02*
D03*
X20800Y266000D02*
D03*
D53*
X484100Y50000D02*
D03*
X446000D02*
D03*
Y270000D02*
D03*
X484100D02*
D03*
D54*
X136000Y44500D02*
D03*
Y92000D02*
D03*
D55*
X107500Y210000D02*
D03*
X142500D02*
D03*
D56*
X208000Y212000D02*
D03*
X228000D02*
D03*
D57*
X169000Y275000D02*
D03*
X194400D02*
D03*
X219800D02*
D03*
D58*
X323766Y179509D02*
D03*
X325794Y188560D02*
D03*
X243627Y198000D02*
D03*
X313389Y101750D02*
D03*
X465250Y168000D02*
D03*
X262999Y81000D02*
D03*
X88878Y114000D02*
D03*
X59000Y114000D02*
D03*
X235419Y144503D02*
D03*
X226290Y147000D02*
D03*
X241999Y150000D02*
D03*
X220000Y171000D02*
D03*
X303040Y198000D02*
D03*
X89886Y122574D02*
D03*
X89000Y132000D02*
D03*
X234000Y101000D02*
D03*
X296500Y162500D02*
D03*
X295832Y151168D02*
D03*
X257958Y102080D02*
D03*
X268000Y89000D02*
D03*
X251805Y108580D02*
D03*
X256842Y115620D02*
D03*
X252012Y95255D02*
D03*
X240762Y75004D02*
D03*
X286000Y127000D02*
D03*
X179750Y90500D02*
D03*
X188000Y62000D02*
D03*
X209260Y128256D02*
D03*
X196010Y127006D02*
D03*
X228371Y108362D02*
D03*
X222761Y68753D02*
D03*
X242512Y66003D02*
D03*
X209000Y51750D02*
D03*
X201000Y155000D02*
D03*
X275149Y69268D02*
D03*
X264000Y120700D02*
D03*
X275460Y93888D02*
D03*
X252000Y64000D02*
D03*
X261000Y65000D02*
D03*
X161000Y84000D02*
D03*
X304000Y53000D02*
D03*
X271000Y165000D02*
D03*
Y177000D02*
D03*
M02*
