G04*
G04 #@! TF.GenerationSoftware,Altium Limited,Altium Designer,20.0.12 (288)*
G04*
G04 Layer_Physical_Order=1*
G04 Layer_Color=255*
%FSLAX44Y44*%
%MOMM*%
G71*
G01*
G75*
%ADD10C,0.2000*%
%ADD11C,0.2500*%
%ADD12C,0.6000*%
%ADD15C,0.3000*%
%ADD16C,0.1600*%
%ADD31R,0.9500X0.8000*%
%ADD36R,0.8000X0.9500*%
%ADD49C,1.6000*%
%ADD54C,1.5000*%
%ADD59R,0.8500X0.7000*%
%ADD60R,0.6000X1.4500*%
%ADD61R,0.9000X1.0000*%
%ADD62R,0.7000X0.8500*%
%ADD63R,1.4000X1.0000*%
%ADD64R,1.4500X0.6000*%
%ADD65R,1.0000X1.4000*%
%ADD66R,0.4000X0.9000*%
%ADD67R,1.2000X1.7400*%
%ADD68R,1.5000X0.5500*%
%ADD69R,0.5500X1.5000*%
%ADD70R,1.6000X2.2500*%
%ADD71C,0.4000*%
%ADD72C,0.5000*%
%ADD73C,1.2000*%
%ADD74C,0.8000*%
%ADD75C,1.5000*%
%ADD76C,0.7000*%
%ADD77C,1.0000*%
%ADD78C,1.0000*%
%ADD79C,4.5000*%
%ADD80R,1.5000X1.4500*%
%ADD81R,1.5000X1.5000*%
%ADD82R,1.5000X1.5000*%
%ADD83C,2.0000*%
%ADD84C,1.4000*%
%ADD85C,1.8000*%
%ADD86C,1.2000*%
%ADD87R,1.8000X1.8000*%
%ADD88C,0.6000*%
G36*
X266090Y317439D02*
X265322Y314909D01*
X264839Y310000D01*
X265322Y305091D01*
X266754Y300371D01*
X269079Y296021D01*
X272208Y292208D01*
X276021Y289079D01*
X278258Y287884D01*
X277940Y286614D01*
X275040D01*
Y287590D01*
X271857D01*
X271741Y287741D01*
X271341Y288141D01*
X269557Y289510D01*
X268340Y290014D01*
X267479Y290370D01*
X265250Y290664D01*
X263021Y290370D01*
X260943Y289510D01*
X259159Y288141D01*
X258737Y287590D01*
X255460D01*
Y276510D01*
X255503D01*
X255816Y276160D01*
X255460Y274890D01*
X255460D01*
Y263810D01*
X256636D01*
Y262190D01*
X255460D01*
Y251110D01*
X256636D01*
Y249490D01*
X255460D01*
Y238410D01*
X258737D01*
X259159Y237859D01*
X260644Y236720D01*
X260984Y235265D01*
X237868Y212149D01*
X236533Y212610D01*
X236320Y214229D01*
X235914Y215211D01*
Y219994D01*
X235620Y222224D01*
X234760Y224301D01*
X233391Y226085D01*
X227594Y231882D01*
Y239397D01*
X227835Y239980D01*
X228129Y242210D01*
Y263460D01*
X231340D01*
Y286540D01*
X208260D01*
Y263460D01*
X210901D01*
Y254290D01*
X209460D01*
Y239710D01*
X210366D01*
Y233453D01*
X203314D01*
X201348Y233062D01*
X199681Y231948D01*
X194515Y226782D01*
X193438Y227502D01*
X193596Y227882D01*
X193855Y229851D01*
X193714Y230925D01*
X193758Y231263D01*
X198128Y235632D01*
X199336Y237208D01*
X200096Y239042D01*
X200184Y239710D01*
X206040D01*
Y245730D01*
X199500D01*
Y248270D01*
X206040D01*
Y254290D01*
X200355D01*
Y263460D01*
X205940D01*
Y273730D01*
X194400D01*
Y276270D01*
X205940D01*
Y286540D01*
X202957D01*
X202682Y288634D01*
X201670Y291077D01*
X200061Y293174D01*
X200061Y293174D01*
X191274Y301961D01*
X189177Y303570D01*
X186734Y304582D01*
X184113Y304927D01*
X184113Y304927D01*
X149395D01*
X139104Y315217D01*
X139590Y316391D01*
X261419D01*
X261696Y316336D01*
X263078Y316610D01*
X264249Y317393D01*
X265031Y318564D01*
X265107Y318575D01*
X266090Y317439D01*
D02*
G37*
G36*
X286968Y270114D02*
X287684Y269322D01*
X287361Y267699D01*
Y256279D01*
X286048Y255402D01*
X276213Y245567D01*
X275040Y246053D01*
Y249490D01*
X273864D01*
Y251110D01*
X275040D01*
Y262190D01*
X273864D01*
Y263810D01*
X275040D01*
Y269386D01*
X283000D01*
X285229Y269680D01*
X286678Y270280D01*
X286968Y270114D01*
D02*
G37*
G36*
X314969Y318564D02*
X315751Y317393D01*
X316922Y316610D01*
X318304Y316336D01*
X318581Y316391D01*
X495000Y316391D01*
X495153Y316421D01*
X499182Y316024D01*
X503203Y314804D01*
X506909Y312824D01*
X510158Y310158D01*
X512824Y306909D01*
X514804Y303203D01*
X516024Y299182D01*
X516421Y295153D01*
X516391Y295000D01*
Y210474D01*
X515121Y210411D01*
X515080Y210820D01*
X514678Y214909D01*
X513246Y219629D01*
X510921Y223979D01*
X507792Y227792D01*
X503979Y230921D01*
X499629Y233246D01*
X494909Y234678D01*
X490000Y235161D01*
X485091Y234678D01*
X480371Y233246D01*
X476021Y230921D01*
X472208Y227792D01*
X469079Y223979D01*
X466754Y219629D01*
X465322Y214909D01*
X464839Y210000D01*
X465322Y205091D01*
X466754Y200371D01*
X469079Y196021D01*
X472208Y192208D01*
X476021Y189079D01*
X480371Y186754D01*
X485091Y185322D01*
X490000Y184839D01*
X494909Y185322D01*
X499629Y186754D01*
X503979Y189079D01*
X507792Y192208D01*
X510921Y196021D01*
X513246Y200371D01*
X514678Y205091D01*
X515080Y209180D01*
X515121Y209589D01*
X516391Y209526D01*
Y25000D01*
X516421Y24847D01*
X516024Y20818D01*
X514804Y16797D01*
X512824Y13091D01*
X510158Y9842D01*
X506909Y7176D01*
X503203Y5196D01*
X499182Y3976D01*
X495153Y3579D01*
X495000Y3609D01*
X418202D01*
X417716Y4783D01*
X418994Y6061D01*
X418994Y6061D01*
X420219Y7893D01*
X420649Y10055D01*
X420648Y10055D01*
Y58100D01*
X420649Y58100D01*
X420219Y60262D01*
X418994Y62094D01*
X418994Y62094D01*
X411023Y70065D01*
X411331Y72400D01*
X410969Y75152D01*
X409907Y77716D01*
X408217Y79917D01*
X406016Y81607D01*
X403451Y82669D01*
X400700Y83031D01*
X398365Y82724D01*
X390394Y90694D01*
X388562Y91919D01*
X388380Y91955D01*
X388505Y93225D01*
X388740D01*
Y94401D01*
X390360D01*
Y93225D01*
X401440D01*
Y94401D01*
X403060D01*
Y93225D01*
X414140D01*
Y94401D01*
X415760D01*
Y93225D01*
X426840D01*
Y94401D01*
X447167D01*
X450386Y91182D01*
Y66887D01*
X446130Y62631D01*
X446000Y62648D01*
X442726Y62217D01*
X439676Y60954D01*
X437056Y58944D01*
X435046Y56324D01*
X433783Y53274D01*
X433352Y50000D01*
X433783Y46726D01*
X435046Y43676D01*
X437056Y41056D01*
X439676Y39046D01*
X442726Y37783D01*
X446000Y37352D01*
X449274Y37783D01*
X452324Y39046D01*
X454944Y41056D01*
X456954Y43676D01*
X458217Y46726D01*
X458648Y50000D01*
X458557Y50695D01*
X465091Y57229D01*
X465154Y57312D01*
X466762Y57321D01*
X471758Y52325D01*
X471452Y50000D01*
X471883Y46726D01*
X473146Y43676D01*
X475156Y41056D01*
X477776Y39046D01*
X480826Y37783D01*
X484100Y37352D01*
X487374Y37783D01*
X490424Y39046D01*
X493044Y41056D01*
X495054Y43676D01*
X496317Y46726D01*
X496748Y50000D01*
X496317Y53274D01*
X495054Y56324D01*
X493044Y58944D01*
X490424Y60954D01*
X487374Y62217D01*
X486056Y62391D01*
X480884Y67563D01*
Y89347D01*
X481720Y90436D01*
X482247Y91710D01*
X482790D01*
Y93358D01*
X486918Y97487D01*
X488609Y97709D01*
X490686Y98570D01*
X492470Y99939D01*
X500591Y108059D01*
X501960Y109843D01*
X502174Y110360D01*
X504290D01*
Y121440D01*
X503114D01*
Y123060D01*
X504290D01*
Y134140D01*
X503114D01*
Y135760D01*
X504290D01*
Y146840D01*
X503114D01*
Y148460D01*
X504290D01*
Y159540D01*
X501013D01*
X500591Y160091D01*
X498807Y161460D01*
X496729Y162320D01*
X494500Y162614D01*
X492271Y162320D01*
X490193Y161460D01*
X488409Y160091D01*
X487987Y159540D01*
X484710D01*
Y148460D01*
X485886D01*
Y146840D01*
X484710D01*
Y135760D01*
X485886D01*
Y134140D01*
X484710D01*
Y123060D01*
X485886D01*
Y121440D01*
X484710D01*
Y116542D01*
X482741Y114572D01*
X481050Y114350D01*
X480190Y113993D01*
X478973Y113489D01*
X477189Y112120D01*
X471358Y106290D01*
X469710D01*
Y104642D01*
X468169Y103101D01*
X467694Y102482D01*
X467036Y102549D01*
X466339Y102802D01*
X466290Y102920D01*
Y106290D01*
X463198D01*
X462977Y106460D01*
X460899Y107320D01*
X458670Y107614D01*
X458359Y107573D01*
X456826Y109106D01*
X455042Y110474D01*
X453825Y110978D01*
X452965Y111335D01*
X450735Y111628D01*
X449790D01*
Y114173D01*
X455384Y119766D01*
X456498Y121433D01*
X456889Y123400D01*
Y133800D01*
X456498Y135766D01*
X455384Y137434D01*
X449790Y143027D01*
Y146840D01*
X430210D01*
Y137214D01*
X419519D01*
X410181Y146551D01*
X410667Y147725D01*
X414140D01*
Y167305D01*
X410327D01*
X408409Y169223D01*
X408895Y170396D01*
X415703D01*
X416161Y170020D01*
Y167305D01*
X415760D01*
Y147725D01*
X426840D01*
Y148861D01*
X430210D01*
Y148460D01*
X449790D01*
Y159540D01*
X430210D01*
Y159139D01*
X426840D01*
Y167305D01*
X426439D01*
Y170136D01*
X429287Y172984D01*
X429803Y172770D01*
X440000D01*
X449540D01*
Y175861D01*
X452460D01*
Y173460D01*
X461164D01*
X461549Y172190D01*
X461256Y171994D01*
X460031Y170162D01*
X459854Y169270D01*
X470646D01*
X470469Y170162D01*
X469244Y171994D01*
X468951Y172190D01*
X469336Y173460D01*
X471540D01*
Y188540D01*
X452460D01*
Y186139D01*
X449540D01*
Y198040D01*
X430460D01*
Y192409D01*
X427438D01*
X425472Y192018D01*
X423805Y190904D01*
X413574Y180673D01*
X388355D01*
X387869Y181847D01*
X390408Y184386D01*
X411000D01*
X413229Y184680D01*
X415307Y185540D01*
X417091Y186909D01*
X418460Y188693D01*
X419320Y190771D01*
X419614Y193000D01*
X419320Y195229D01*
X418460Y197307D01*
X417091Y199091D01*
X415307Y200460D01*
X413229Y201320D01*
X411000Y201614D01*
X386841D01*
X386840Y201614D01*
X385726Y201467D01*
X384611Y201320D01*
X382533Y200460D01*
X380750Y199091D01*
X380749Y199091D01*
X372608Y190949D01*
X372310Y190561D01*
X371040Y190992D01*
Y203840D01*
X350960D01*
X350889Y205081D01*
Y242311D01*
X354887D01*
X355591Y242171D01*
X363909D01*
X365875Y242562D01*
X367542Y243676D01*
X373424Y249558D01*
X374538Y251225D01*
X374929Y253191D01*
Y261509D01*
X374538Y263475D01*
X373424Y265142D01*
X362082Y276484D01*
X360415Y277598D01*
X358449Y277989D01*
X355540D01*
Y278890D01*
X344883D01*
X344204Y280160D01*
X344365Y280401D01*
X345750D01*
X346296Y280510D01*
X355540D01*
Y291590D01*
X346296D01*
X345750Y291698D01*
X341129D01*
X340583Y291590D01*
X335960D01*
Y288869D01*
X330713Y283623D01*
X329540Y284109D01*
Y287590D01*
X309960D01*
Y287189D01*
X306851D01*
X304885Y286798D01*
X303218Y285684D01*
X292264Y274730D01*
X291187Y275449D01*
X291320Y275771D01*
X291614Y278000D01*
X291320Y280229D01*
X290460Y282307D01*
X289455Y283616D01*
X289872Y284553D01*
X290109Y284850D01*
X294909Y285322D01*
X299629Y286754D01*
X303979Y289079D01*
X307792Y292208D01*
X310921Y296021D01*
X313246Y300371D01*
X314678Y305091D01*
X315161Y310000D01*
X314678Y314909D01*
X313910Y317439D01*
X314893Y318575D01*
X314969Y318564D01*
D02*
G37*
G36*
X25000Y316391D02*
X29330D01*
X29816Y315217D01*
X13639Y299041D01*
X12030Y296943D01*
X11018Y294501D01*
X10777Y292670D01*
X20800D01*
Y291400D01*
X22070D01*
Y281441D01*
X23421Y281618D01*
X25863Y282630D01*
X27961Y284239D01*
X29544Y286303D01*
X34938Y291697D01*
X36116Y291078D01*
X36418Y288779D01*
X37430Y286337D01*
X39039Y284239D01*
X41137Y282630D01*
X43579Y281618D01*
X46200Y281273D01*
X48821Y281618D01*
X51263Y282630D01*
X53361Y284239D01*
X54970Y286337D01*
X55982Y288779D01*
X56327Y291400D01*
X55982Y294021D01*
X54970Y296463D01*
X53361Y298561D01*
X53217Y298671D01*
X53625Y299873D01*
X64175D01*
X64583Y298671D01*
X64439Y298561D01*
X62830Y296463D01*
X61818Y294021D01*
X61473Y291400D01*
X61818Y288779D01*
X62830Y286337D01*
X64439Y284239D01*
X66537Y282630D01*
X68979Y281618D01*
X71600Y281273D01*
X74221Y281618D01*
X76663Y282630D01*
X78761Y284239D01*
X80370Y286337D01*
X81382Y288779D01*
X81727Y291400D01*
X81382Y294021D01*
X80370Y296463D01*
X78761Y298561D01*
X78617Y298671D01*
X79025Y299873D01*
X89575D01*
X89983Y298671D01*
X89839Y298561D01*
X88230Y296463D01*
X87218Y294021D01*
X86873Y291400D01*
X87218Y288779D01*
X88230Y286337D01*
X89839Y284239D01*
X91937Y282630D01*
X94379Y281618D01*
X97000Y281273D01*
X99621Y281618D01*
X102063Y282630D01*
X104161Y284239D01*
X105770Y286337D01*
X106782Y288779D01*
X107127Y291400D01*
X106782Y294021D01*
X105770Y296463D01*
X104161Y298561D01*
X104017Y298671D01*
X104425Y299873D01*
X114975D01*
X115383Y298671D01*
X115239Y298561D01*
X113630Y296463D01*
X112618Y294021D01*
X112273Y291400D01*
X112618Y288779D01*
X113630Y286337D01*
X115239Y284239D01*
X117337Y282630D01*
X119779Y281618D01*
X122400Y281273D01*
X125021Y281618D01*
X127463Y282630D01*
X129561Y284239D01*
X131170Y286337D01*
X132182Y288779D01*
X132521Y291361D01*
X132900Y291647D01*
X133658Y292021D01*
X138039Y287640D01*
X138039Y287639D01*
X140137Y286030D01*
X142579Y285019D01*
X145200Y284673D01*
X157460D01*
Y263460D01*
X161895D01*
Y247000D01*
X162145Y245101D01*
Y235150D01*
X160263Y233268D01*
X158369Y233019D01*
X157295Y232574D01*
X156535Y232259D01*
X154960Y231050D01*
X145195Y221285D01*
X142500Y221640D01*
X139487Y221243D01*
X136680Y220080D01*
X134270Y218230D01*
X132420Y215820D01*
X131257Y213013D01*
X130860Y210000D01*
X131257Y206987D01*
X132420Y204180D01*
X134270Y201770D01*
X134611Y201508D01*
X134203Y200305D01*
X127950D01*
X119525Y208730D01*
X108770D01*
Y197975D01*
X119422Y187322D01*
X120997Y186114D01*
X122832Y185354D01*
X124800Y185095D01*
X145311D01*
X146020Y184230D01*
Y173538D01*
X123871Y151389D01*
X121040D01*
Y152290D01*
X107460D01*
Y152290D01*
X107040D01*
Y152290D01*
X93460D01*
Y140652D01*
X92974Y140556D01*
X91638Y139663D01*
X89520Y137545D01*
X89221Y137605D01*
X74119Y152706D01*
Y175995D01*
X73806Y177571D01*
X72913Y178908D01*
X54408Y197413D01*
X53071Y198306D01*
X52908Y198338D01*
X52592Y199696D01*
X53561Y200439D01*
X55170Y202537D01*
X56182Y204979D01*
X56527Y207600D01*
X56182Y210221D01*
X55170Y212663D01*
X53561Y214761D01*
X51463Y216370D01*
X49021Y217382D01*
X46400Y217727D01*
X43779Y217382D01*
X41337Y216370D01*
X39239Y214761D01*
X37630Y212663D01*
X36618Y210221D01*
X36273Y207600D01*
X36618Y204979D01*
X37630Y202537D01*
X39239Y200439D01*
X39957Y199889D01*
X39525Y198619D01*
X33300D01*
X31724Y198306D01*
X30387Y197413D01*
X24565Y191590D01*
X23621Y191982D01*
X21000Y192327D01*
X18379Y191982D01*
X15937Y190970D01*
X13839Y189361D01*
X12230Y187263D01*
X11218Y184821D01*
X10873Y182200D01*
X11218Y179579D01*
X12230Y177137D01*
X13839Y175039D01*
X15937Y173430D01*
X18379Y172418D01*
X21000Y172073D01*
X23621Y172418D01*
X26063Y173430D01*
X28161Y175039D01*
X29770Y177137D01*
X30782Y179579D01*
X31127Y182200D01*
X30782Y184821D01*
X30391Y185765D01*
X35006Y190381D01*
X38660D01*
X39048Y189111D01*
X37630Y187263D01*
X36618Y184821D01*
X36273Y182200D01*
X36618Y179579D01*
X37630Y177137D01*
X39239Y175039D01*
X41337Y173430D01*
X43779Y172418D01*
X46400Y172073D01*
X49021Y172418D01*
X51463Y173430D01*
X53561Y175039D01*
X55170Y177137D01*
X55178Y177157D01*
X56676Y177455D01*
X61611Y172520D01*
Y149231D01*
X61924Y147655D01*
X62817Y146319D01*
X77841Y131295D01*
Y129084D01*
X78154Y127508D01*
X79047Y126171D01*
X83171Y122047D01*
X84508Y121154D01*
X84520Y121152D01*
X84667Y120412D01*
X85851Y118640D01*
X84884Y117994D01*
X83659Y116161D01*
X83273Y114221D01*
X66872Y97819D01*
X54140D01*
X53752Y99089D01*
X55170Y100937D01*
X56182Y103379D01*
X56527Y106000D01*
X56304Y107691D01*
X56339Y107763D01*
X57458Y108658D01*
X59000Y108351D01*
X61162Y108781D01*
X62994Y110006D01*
X64219Y111838D01*
X64648Y114000D01*
X64219Y116162D01*
X62994Y117994D01*
X61162Y119219D01*
X59000Y119649D01*
X58470Y119543D01*
X56801Y121213D01*
X55465Y122106D01*
X53888Y122419D01*
X53275D01*
X52843Y123689D01*
X53561Y124239D01*
X55170Y126337D01*
X56182Y128779D01*
X56527Y131400D01*
X56182Y134021D01*
X55170Y136463D01*
X53561Y138561D01*
X51463Y140170D01*
X49021Y141182D01*
X46400Y141527D01*
X43779Y141182D01*
X41337Y140170D01*
X39239Y138561D01*
X37630Y136463D01*
X36618Y134021D01*
X36273Y131400D01*
X36618Y128779D01*
X37630Y126337D01*
X39239Y124239D01*
X39957Y123689D01*
X39525Y122419D01*
X27875D01*
X27443Y123689D01*
X28161Y124239D01*
X29770Y126337D01*
X30782Y128779D01*
X31127Y131400D01*
X30782Y134021D01*
X29770Y136463D01*
X28161Y138561D01*
X26063Y140170D01*
X23621Y141182D01*
X21000Y141527D01*
X18379Y141182D01*
X15937Y140170D01*
X13839Y138561D01*
X12230Y136463D01*
X11218Y134021D01*
X10873Y131400D01*
X11218Y128779D01*
X12230Y126337D01*
X13839Y124239D01*
X14808Y123496D01*
X14492Y122138D01*
X14329Y122106D01*
X12993Y121213D01*
X5787Y114008D01*
X4894Y112671D01*
X4879Y112595D01*
X3609Y112720D01*
Y293736D01*
X3609Y293750D01*
X3609Y295000D01*
X3686Y296238D01*
X3976Y299182D01*
X5196Y303203D01*
X7176Y306909D01*
X9842Y310158D01*
X13091Y312824D01*
X16797Y314804D01*
X20818Y316024D01*
X24847Y316421D01*
X25000Y316391D01*
D02*
G37*
G36*
X309960Y238410D02*
X316352D01*
Y231000D01*
X316351Y231000D01*
X316460Y230454D01*
Y219460D01*
X331540D01*
Y238540D01*
X329540D01*
Y241502D01*
X331947Y243909D01*
X333065Y244656D01*
X334787Y246377D01*
X335960Y245891D01*
Y242410D01*
X340611D01*
Y216540D01*
X334770D01*
Y207000D01*
X332230D01*
Y216540D01*
X325960D01*
Y206955D01*
X324730Y206134D01*
X323213Y204617D01*
X322040Y205103D01*
Y216540D01*
X313506D01*
X312273Y217773D01*
X310771Y218777D01*
X309000Y219129D01*
X309000Y219129D01*
X299540D01*
Y221303D01*
X299629Y221750D01*
Y224000D01*
X299540Y224447D01*
Y231040D01*
X296270D01*
Y224000D01*
X293730D01*
Y231040D01*
X288270D01*
Y224000D01*
X285730D01*
Y231040D01*
X280270D01*
Y224000D01*
X277730D01*
Y231403D01*
X277395Y232213D01*
X291810Y246629D01*
X309960D01*
Y238410D01*
D02*
G37*
G36*
X281861Y166935D02*
Y160000D01*
X282252Y158034D01*
X283366Y156366D01*
X290585Y149148D01*
X290613Y149007D01*
X291838Y147174D01*
X293670Y145950D01*
X295832Y145520D01*
X297993Y145950D01*
X299190Y146750D01*
X300460Y146462D01*
Y146410D01*
X307611D01*
Y140790D01*
X298710D01*
Y139139D01*
X294128D01*
X277634Y155634D01*
X275966Y156748D01*
X274000Y157139D01*
X265540D01*
Y157490D01*
X257890D01*
X257640Y157840D01*
X258293Y159110D01*
X265540D01*
Y159686D01*
X269317D01*
X271000Y159352D01*
X273162Y159781D01*
X274994Y161006D01*
X276219Y162838D01*
X276247Y162979D01*
X280688Y167421D01*
X281861Y166935D01*
D02*
G37*
G36*
X195737Y156940D02*
X195604Y156270D01*
X201000D01*
Y153730D01*
X195604D01*
X195781Y152838D01*
X197006Y151006D01*
X198838Y149781D01*
X199726Y149605D01*
X200386Y148616D01*
X202053Y147502D01*
X204020Y147111D01*
X204710D01*
Y144210D01*
X207954D01*
X208440Y143037D01*
X200158Y134755D01*
X199375Y133584D01*
X199264Y133022D01*
X198222Y132262D01*
X197865Y132286D01*
X196010Y132655D01*
X194060Y132267D01*
X192790Y132920D01*
Y140290D01*
X192790D01*
Y140710D01*
X192790D01*
Y155290D01*
X192408D01*
Y158199D01*
X192419Y158210D01*
X195071D01*
X195737Y156940D01*
D02*
G37*
G36*
X350960Y197326D02*
Y183760D01*
X363234D01*
X363452Y183511D01*
X363791Y182490D01*
X359650Y178349D01*
X358379Y178182D01*
X355937Y177170D01*
X353839Y175561D01*
X352230Y173463D01*
X351218Y171021D01*
X350873Y168400D01*
X351218Y165779D01*
X352230Y163337D01*
X353839Y161239D01*
X355937Y159630D01*
X358379Y158618D01*
X361000Y158273D01*
X363621Y158618D01*
X366063Y159630D01*
X368161Y161239D01*
X369291Y162713D01*
X370561Y162282D01*
Y153040D01*
X350960D01*
Y132960D01*
X365784D01*
X366271Y131787D01*
X363123Y128639D01*
X328496D01*
X327389Y129746D01*
Y133000D01*
X327290Y133497D01*
Y140790D01*
X326389D01*
Y144583D01*
X326748Y145119D01*
X327139Y147086D01*
Y158360D01*
X345640D01*
Y178440D01*
X330203D01*
X329397Y179422D01*
X329414Y179509D01*
X328984Y181670D01*
X328663Y182151D01*
X329342Y183421D01*
X333424D01*
X335391Y183812D01*
X337058Y184926D01*
X349384Y197252D01*
X349690Y197711D01*
X350960Y197326D01*
D02*
G37*
G36*
X153210Y164534D02*
Y158210D01*
X162631D01*
X162654Y158032D01*
X163264Y156560D01*
X163210Y155290D01*
X163210D01*
Y149270D01*
X169750D01*
X176290D01*
Y155290D01*
X176290D01*
X176671Y156402D01*
X177346Y158032D01*
X177587Y159860D01*
X178822Y160022D01*
X180092Y159194D01*
Y155290D01*
X179710D01*
Y140710D01*
X179710D01*
Y140290D01*
X179710D01*
Y125710D01*
X180092D01*
Y118290D01*
X179710D01*
Y103710D01*
Y96141D01*
X177588Y95719D01*
X177410Y95599D01*
X177166Y95730D01*
X169750D01*
X163210D01*
Y90158D01*
X161000D01*
X158643Y89690D01*
X156645Y88355D01*
X155310Y86357D01*
X154842Y84000D01*
X155049Y82957D01*
X154047Y81518D01*
X153791Y81476D01*
X145348Y89919D01*
X145622Y92000D01*
X145295Y94490D01*
X144333Y96811D01*
X142804Y98804D01*
X140811Y100333D01*
X138490Y101294D01*
X136000Y101622D01*
X133510Y101294D01*
X131189Y100333D01*
X129196Y98804D01*
X127741Y96908D01*
X103500D01*
X102905Y96790D01*
X95710D01*
Y83710D01*
X110290D01*
Y84592D01*
X129984D01*
X131189Y83667D01*
X133510Y82705D01*
X136000Y82378D01*
X138081Y82652D01*
X153171Y67562D01*
X152685Y66389D01*
X119242D01*
X116577Y69054D01*
X116545Y69209D01*
X115315Y71038D01*
X113478Y72256D01*
X111314Y72678D01*
X111190Y72677D01*
X110290Y73574D01*
Y80290D01*
X95710D01*
Y67210D01*
X95710D01*
Y66790D01*
X95710D01*
Y53710D01*
X110290D01*
Y59147D01*
X111463Y59633D01*
X113480Y57616D01*
X115147Y56502D01*
X117114Y56111D01*
X141120D01*
X141606Y54938D01*
X139885Y53217D01*
X138490Y53794D01*
X136000Y54122D01*
X133510Y53794D01*
X131189Y52833D01*
X129196Y51304D01*
X128413Y50283D01*
X110290D01*
Y50290D01*
X95710D01*
Y37210D01*
X110290D01*
Y37967D01*
X128988D01*
X129196Y37696D01*
X131189Y36167D01*
X133510Y35206D01*
X136000Y34878D01*
X138490Y35206D01*
X140811Y36167D01*
X142804Y37696D01*
X144333Y39689D01*
X145295Y42010D01*
X145610Y44408D01*
X149774Y48571D01*
X172210D01*
Y46710D01*
X185790D01*
Y47571D01*
X191120D01*
X193087Y47962D01*
X194754Y49076D01*
X200391Y54714D01*
X201505Y56381D01*
X201670Y57210D01*
X203367D01*
X203972Y55940D01*
X203287Y55048D01*
X202628Y53457D01*
X202404Y51750D01*
Y38000D01*
X202628Y36293D01*
X203287Y34702D01*
X204336Y33336D01*
X211586Y26086D01*
X212952Y25037D01*
X214543Y24378D01*
X214710Y24356D01*
Y22560D01*
X214710Y22210D01*
X214710D01*
Y21290D01*
X214710D01*
Y19177D01*
X213440Y18989D01*
X213246Y19629D01*
X210921Y23979D01*
X207792Y27792D01*
X203979Y30921D01*
X199629Y33246D01*
X194909Y34678D01*
X190000Y35161D01*
X185091Y34678D01*
X180371Y33246D01*
X176021Y30921D01*
X172208Y27792D01*
X169079Y23979D01*
X166754Y19629D01*
X165322Y14909D01*
X164839Y10000D01*
X165322Y5091D01*
X166090Y2561D01*
X165107Y1425D01*
X165031Y1436D01*
X164249Y2607D01*
X163078Y3390D01*
X161696Y3664D01*
X161419Y3609D01*
X25000D01*
X24847Y3579D01*
X20818Y3976D01*
X16797Y5196D01*
X13091Y7176D01*
X9842Y9842D01*
X7176Y13091D01*
X5196Y16797D01*
X3976Y20818D01*
X3687Y23752D01*
X3609Y25000D01*
X3609Y25000D01*
X3609Y26250D01*
Y48480D01*
X4879Y48605D01*
X4894Y48529D01*
X5787Y47193D01*
X13065Y39915D01*
X14401Y39022D01*
X14432Y39016D01*
X14748Y37658D01*
X13839Y36961D01*
X12230Y34863D01*
X11218Y32421D01*
X10873Y29800D01*
X11218Y27179D01*
X12230Y24737D01*
X13839Y22639D01*
X15937Y21030D01*
X18379Y20018D01*
X21000Y19673D01*
X23621Y20018D01*
X26063Y21030D01*
X28161Y22639D01*
X29770Y24737D01*
X30782Y27179D01*
X31127Y29800D01*
X30782Y32421D01*
X29770Y34863D01*
X28161Y36961D01*
X27538Y37438D01*
X27969Y38709D01*
X31416D01*
X36360Y33765D01*
Y20010D01*
X56440D01*
Y39590D01*
X42185D01*
X36035Y45740D01*
X34699Y46633D01*
X33122Y46947D01*
X28615D01*
X28297Y48217D01*
X29770Y50137D01*
X30782Y52579D01*
X31127Y55200D01*
X30782Y57821D01*
X29770Y60263D01*
X28161Y62361D01*
X26063Y63970D01*
X23621Y64982D01*
X21000Y65327D01*
X18379Y64982D01*
X15937Y63970D01*
X14089Y62552D01*
X12819Y62940D01*
Y72860D01*
X14089Y73248D01*
X15937Y71830D01*
X18379Y70818D01*
X21000Y70473D01*
X23621Y70818D01*
X26063Y71830D01*
X28161Y73439D01*
X29770Y75537D01*
X30782Y77979D01*
X31127Y80600D01*
X30782Y83221D01*
X29770Y85663D01*
X28161Y87761D01*
X26063Y89370D01*
X23621Y90382D01*
X21000Y90727D01*
X18379Y90382D01*
X15937Y89370D01*
X14089Y87952D01*
X12819Y88340D01*
Y98260D01*
X14089Y98648D01*
X15937Y97230D01*
X18379Y96218D01*
X21000Y95873D01*
X23621Y96218D01*
X24565Y96609D01*
X30387Y90787D01*
X31724Y89894D01*
X33300Y89581D01*
X39525D01*
X39957Y88311D01*
X39239Y87761D01*
X37630Y85663D01*
X36618Y83221D01*
X36273Y80600D01*
X36618Y77979D01*
X37630Y75537D01*
X39239Y73439D01*
X41337Y71830D01*
X43779Y70818D01*
X46400Y70473D01*
X49021Y70818D01*
X51463Y71830D01*
X53561Y73439D01*
X55170Y75537D01*
X56182Y77979D01*
X56527Y80600D01*
X56182Y83221D01*
X55170Y85663D01*
X53561Y87761D01*
X52843Y88311D01*
X53275Y89581D01*
X68578D01*
X70155Y89894D01*
X71491Y90787D01*
X89099Y108395D01*
X91039Y108781D01*
X92872Y110006D01*
X94096Y111838D01*
X94527Y114000D01*
X94096Y116161D01*
X92913Y117933D01*
X93880Y118580D01*
X94377Y119323D01*
X94474Y119342D01*
X95810Y120235D01*
X99285Y123710D01*
X107040D01*
X107040Y123710D01*
X107460D01*
Y123710D01*
X108310Y123710D01*
X121040D01*
Y135790D01*
X113285D01*
X110135Y138940D01*
X110661Y140210D01*
X121040D01*
Y141111D01*
X126000D01*
X127966Y141502D01*
X129634Y142616D01*
X152037Y165019D01*
X153210Y164534D01*
D02*
G37*
G36*
X389809Y142560D02*
X409860Y122509D01*
X411601Y121173D01*
X411614Y121048D01*
X411294Y119903D01*
X379585D01*
X379059Y121173D01*
X386834Y128948D01*
X387948Y130615D01*
X388339Y132582D01*
Y142390D01*
X389609Y142822D01*
X389809Y142560D01*
D02*
G37*
G36*
X315449Y108284D02*
X314824Y107113D01*
X313389Y107399D01*
X311227Y106969D01*
X311108Y106889D01*
X308250D01*
X306283Y106498D01*
X304616Y105384D01*
X299810Y100577D01*
X298540Y101103D01*
Y113210D01*
Y119417D01*
X299386Y120111D01*
X303622D01*
X315449Y108284D01*
D02*
G37*
G36*
X246371Y107498D02*
X246586Y106418D01*
X247810Y104586D01*
X249643Y103361D01*
X251207Y103050D01*
X252307Y102082D01*
X252012Y100903D01*
X249851Y100473D01*
X248018Y99249D01*
X246794Y97416D01*
X246364Y95255D01*
X246694Y93594D01*
X245896Y92324D01*
X240599D01*
X239218Y92049D01*
X238047Y91267D01*
X227640Y80860D01*
X226370Y81386D01*
Y89617D01*
X226096Y90998D01*
X225313Y92169D01*
X225069Y92414D01*
Y102558D01*
X225980Y103045D01*
X226339Y103118D01*
X227434Y102900D01*
X228457Y101534D01*
X228351Y101000D01*
X228781Y98838D01*
X230005Y97006D01*
X231838Y95781D01*
X234000Y95351D01*
X236161Y95781D01*
X237994Y97006D01*
X239218Y98838D01*
X239648Y101000D01*
X239387Y102310D01*
X244993Y107915D01*
X246371Y107498D01*
D02*
G37*
G36*
X320040Y105821D02*
X373744D01*
X373939Y105722D01*
X374764Y104712D01*
X374792Y104578D01*
X374586Y103015D01*
X374880Y100785D01*
X375740Y98708D01*
X377109Y96924D01*
X377660Y96501D01*
Y93225D01*
X376753Y92348D01*
X369377D01*
X369377Y92349D01*
X367215Y91919D01*
X365383Y90694D01*
X365383Y90694D01*
X357006Y82317D01*
X356212Y81130D01*
X355290Y80290D01*
X351349D01*
X351243Y80418D01*
X350913Y80913D01*
X350734Y81032D01*
X350597Y81197D01*
X348978Y82513D01*
X349403Y83710D01*
X355290D01*
Y96790D01*
X318049D01*
X317586Y98060D01*
X318607Y99588D01*
X319037Y101750D01*
X318607Y103912D01*
X317914Y104949D01*
X318678Y106092D01*
X320040Y105821D01*
D02*
G37*
G36*
X257185Y81128D02*
X257390Y80802D01*
X257781Y78838D01*
X259005Y77006D01*
X260838Y75781D01*
X262999Y75351D01*
X263647Y75480D01*
X264118Y75165D01*
X265499Y74891D01*
X271306D01*
X271691Y73621D01*
X271155Y73262D01*
X269930Y71430D01*
X269500Y69268D01*
X269590Y68814D01*
X267540Y66764D01*
X266333Y67034D01*
X266187Y67207D01*
X264994Y68994D01*
X263161Y70218D01*
X261000Y70648D01*
X258838Y70218D01*
X257005Y68994D01*
X256337Y67994D01*
X255994D01*
X254162Y69219D01*
X252000Y69648D01*
X249838Y69219D01*
X248870Y68571D01*
X247831Y68201D01*
X247242Y68895D01*
X246506Y69997D01*
X244828Y71118D01*
X245980Y72842D01*
X246410Y75004D01*
X245980Y77165D01*
X244756Y78998D01*
X243766Y79660D01*
X243531Y81098D01*
X244144Y81835D01*
X256076D01*
X256228Y81866D01*
X257185Y81128D01*
D02*
G37*
G36*
X338760Y47948D02*
X332040D01*
X327240Y52748D01*
Y67210D01*
X338760D01*
Y47948D01*
D02*
G37*
G36*
X393183Y39483D02*
X395385Y37793D01*
X397948Y36731D01*
X400700Y36369D01*
X403451Y36731D01*
X406016Y37793D01*
X408082Y39379D01*
X409327Y39106D01*
X409352Y39098D01*
Y29502D01*
X409327Y29494D01*
X408082Y29221D01*
X406016Y30807D01*
X403451Y31869D01*
X401970Y32064D01*
Y21600D01*
X400700D01*
Y20330D01*
X390236D01*
X390431Y18849D01*
X391493Y16285D01*
X393183Y14083D01*
X393996Y13458D01*
X393565Y12189D01*
X382435D01*
X382004Y13458D01*
X382817Y14083D01*
X384507Y16285D01*
X385569Y18849D01*
X385931Y21600D01*
X385569Y24351D01*
X384507Y26916D01*
X382817Y29117D01*
X381992Y29750D01*
X382043Y31312D01*
X382247Y31448D01*
X390152Y39353D01*
X390864Y40418D01*
X391211Y40557D01*
X392261Y40684D01*
X393183Y39483D01*
D02*
G37*
G36*
X287960Y18460D02*
X288460D01*
Y4960D01*
X299951D01*
X299995Y4879D01*
X299243Y3609D01*
X218580D01*
X218304Y3664D01*
X216922Y3390D01*
X215751Y2607D01*
X214969Y1436D01*
X214893Y1425D01*
X213910Y2561D01*
X214678Y5091D01*
X214788Y6210D01*
X221321D01*
X221750Y6154D01*
X222179Y6210D01*
X228790D01*
Y7154D01*
X255710D01*
Y6210D01*
X262321D01*
X262750Y6154D01*
X262864Y6169D01*
X263250Y6092D01*
X264847D01*
X264893Y6061D01*
X267250Y5592D01*
X271960D01*
Y4960D01*
X284040D01*
Y11155D01*
X284158Y11750D01*
X284040Y12345D01*
Y18460D01*
X284540D01*
Y25321D01*
X284596Y25750D01*
X284540Y26179D01*
Y30121D01*
X287960D01*
Y18460D01*
D02*
G37*
%LPC*%
G36*
X400250Y294664D02*
X398021Y294370D01*
X395943Y293510D01*
X394159Y292141D01*
X393737Y291590D01*
X390460D01*
Y280510D01*
X391636D01*
Y278890D01*
X390460D01*
Y267810D01*
X391636D01*
Y266190D01*
X390460D01*
Y255110D01*
X391636D01*
Y253490D01*
X390460D01*
Y242410D01*
X393737D01*
X394159Y241859D01*
X395943Y240490D01*
X398021Y239630D01*
X400250Y239336D01*
X402479Y239630D01*
X404557Y240490D01*
X406341Y241859D01*
X406763Y242410D01*
X410040D01*
Y252136D01*
X413432D01*
X420959Y244609D01*
X422743Y243240D01*
X424821Y242380D01*
X427050Y242086D01*
X463802D01*
X466031Y242380D01*
X468109Y243240D01*
X469893Y244609D01*
X482806Y257522D01*
X484100Y257352D01*
X487374Y257783D01*
X490424Y259046D01*
X493044Y261056D01*
X495054Y263676D01*
X496317Y266726D01*
X496748Y270000D01*
X496317Y273274D01*
X495054Y276324D01*
X493044Y278944D01*
X490424Y280954D01*
X487374Y282217D01*
X484100Y282648D01*
X480826Y282217D01*
X477776Y280954D01*
X475156Y278944D01*
X473146Y276324D01*
X471883Y273274D01*
X471532Y270612D01*
X460234Y259314D01*
X454648D01*
X454240Y260516D01*
X454944Y261056D01*
X456954Y263676D01*
X458217Y266726D01*
X458648Y270000D01*
X458217Y273274D01*
X456954Y276324D01*
X454944Y278944D01*
X452324Y280954D01*
X449274Y282217D01*
X446000Y282648D01*
X442726Y282217D01*
X439676Y280954D01*
X438621Y280144D01*
X431851D01*
X426655Y285341D01*
X424871Y286710D01*
X424673Y286791D01*
X424460Y287307D01*
X423091Y289091D01*
X422091Y290091D01*
X420307Y291460D01*
X418229Y292320D01*
X416000Y292614D01*
X413771Y292320D01*
X411693Y291460D01*
X411150Y291043D01*
X410040Y291590D01*
Y291590D01*
X406763D01*
X406341Y292141D01*
X404557Y293510D01*
X402479Y294370D01*
X400250Y294664D01*
D02*
G37*
G36*
X449540Y170230D02*
X441270D01*
Y163960D01*
X449540D01*
Y170230D01*
D02*
G37*
G36*
X438730D02*
X430460D01*
Y163960D01*
X438730D01*
Y170230D01*
D02*
G37*
G36*
X470646Y166730D02*
X466520D01*
Y162604D01*
X467412Y162781D01*
X469244Y164006D01*
X470469Y165838D01*
X470646Y166730D01*
D02*
G37*
G36*
X463980D02*
X459854D01*
X460031Y165838D01*
X461256Y164006D01*
X463088Y162781D01*
X463980Y162604D01*
Y166730D01*
D02*
G37*
G36*
X19530Y290130D02*
X10841D01*
X11018Y288779D01*
X12030Y286337D01*
X13639Y284239D01*
X15737Y282630D01*
X18179Y281618D01*
X19530Y281441D01*
Y290130D01*
D02*
G37*
G36*
X30840Y276040D02*
X10760D01*
Y255960D01*
X30840D01*
Y276040D01*
D02*
G37*
G36*
X122400Y276127D02*
X119779Y275782D01*
X117337Y274770D01*
X115239Y273161D01*
X113630Y271063D01*
X112618Y268621D01*
X112273Y266000D01*
X112618Y263379D01*
X113630Y260937D01*
X115239Y258839D01*
X117337Y257230D01*
X119779Y256218D01*
X122400Y255873D01*
X125021Y256218D01*
X127463Y257230D01*
X129561Y258839D01*
X131170Y260937D01*
X132182Y263379D01*
X132527Y266000D01*
X132182Y268621D01*
X131170Y271063D01*
X129561Y273161D01*
X127463Y274770D01*
X125021Y275782D01*
X122400Y276127D01*
D02*
G37*
G36*
X97000D02*
X94379Y275782D01*
X91937Y274770D01*
X89839Y273161D01*
X88230Y271063D01*
X87218Y268621D01*
X86873Y266000D01*
X87218Y263379D01*
X88230Y260937D01*
X89839Y258839D01*
X91937Y257230D01*
X94379Y256218D01*
X97000Y255873D01*
X99621Y256218D01*
X102063Y257230D01*
X104161Y258839D01*
X105770Y260937D01*
X106782Y263379D01*
X107127Y266000D01*
X106782Y268621D01*
X105770Y271063D01*
X104161Y273161D01*
X102063Y274770D01*
X99621Y275782D01*
X97000Y276127D01*
D02*
G37*
G36*
X71600D02*
X68979Y275782D01*
X66537Y274770D01*
X64439Y273161D01*
X62830Y271063D01*
X61818Y268621D01*
X61473Y266000D01*
X61818Y263379D01*
X62830Y260937D01*
X64439Y258839D01*
X66537Y257230D01*
X68979Y256218D01*
X71600Y255873D01*
X74221Y256218D01*
X76663Y257230D01*
X78761Y258839D01*
X80370Y260937D01*
X81382Y263379D01*
X81727Y266000D01*
X81382Y268621D01*
X80370Y271063D01*
X78761Y273161D01*
X76663Y274770D01*
X74221Y275782D01*
X71600Y276127D01*
D02*
G37*
G36*
X46200D02*
X43579Y275782D01*
X41137Y274770D01*
X39039Y273161D01*
X37430Y271063D01*
X36418Y268621D01*
X36073Y266000D01*
X36418Y263379D01*
X37430Y260937D01*
X39039Y258839D01*
X41137Y257230D01*
X43579Y256218D01*
X46200Y255873D01*
X48821Y256218D01*
X51263Y257230D01*
X53361Y258839D01*
X54970Y260937D01*
X55982Y263379D01*
X56327Y266000D01*
X55982Y268621D01*
X54970Y271063D01*
X53361Y273161D01*
X51263Y274770D01*
X48821Y275782D01*
X46200Y276127D01*
D02*
G37*
G36*
X22270Y242959D02*
Y234270D01*
X30959D01*
X30782Y235621D01*
X29770Y238063D01*
X28161Y240161D01*
X26063Y241770D01*
X23621Y242782D01*
X22270Y242959D01*
D02*
G37*
G36*
X19730D02*
X18379Y242782D01*
X15937Y241770D01*
X13839Y240161D01*
X12230Y238063D01*
X11218Y235621D01*
X11041Y234270D01*
X19730D01*
Y242959D01*
D02*
G37*
G36*
X30959Y231730D02*
X22270D01*
Y223041D01*
X23621Y223218D01*
X26063Y224230D01*
X28161Y225839D01*
X29770Y227937D01*
X30782Y230379D01*
X30959Y231730D01*
D02*
G37*
G36*
X19730D02*
X11041D01*
X11218Y230379D01*
X12230Y227937D01*
X13839Y225839D01*
X15937Y224230D01*
X18379Y223218D01*
X19730Y223041D01*
Y231730D01*
D02*
G37*
G36*
X46400Y243127D02*
X43779Y242782D01*
X41337Y241770D01*
X39239Y240161D01*
X37630Y238063D01*
X36618Y235621D01*
X36273Y233000D01*
X36618Y230379D01*
X37630Y227937D01*
X39239Y225839D01*
X41337Y224230D01*
X43779Y223218D01*
X46400Y222873D01*
X49021Y223218D01*
X51463Y224230D01*
X53561Y225839D01*
X55170Y227937D01*
X56182Y230379D01*
X56527Y233000D01*
X56182Y235621D01*
X55170Y238063D01*
X53561Y240161D01*
X51463Y241770D01*
X49021Y242782D01*
X46400Y243127D01*
D02*
G37*
G36*
X108770Y221472D02*
Y211270D01*
X118972D01*
X118743Y213013D01*
X117580Y215820D01*
X115730Y218230D01*
X113320Y220080D01*
X110513Y221243D01*
X108770Y221472D01*
D02*
G37*
G36*
X106230Y221472D02*
X104487Y221243D01*
X101680Y220080D01*
X99270Y218230D01*
X97420Y215820D01*
X96257Y213013D01*
X96028Y211270D01*
X106230D01*
Y221472D01*
D02*
G37*
G36*
Y208730D02*
X96028D01*
X96257Y206987D01*
X97420Y204180D01*
X99270Y201770D01*
X101680Y199920D01*
X104487Y198757D01*
X106230Y198528D01*
Y208730D01*
D02*
G37*
G36*
X21000Y217727D02*
X18379Y217382D01*
X15937Y216370D01*
X13839Y214761D01*
X12230Y212663D01*
X11218Y210221D01*
X10873Y207600D01*
X11218Y204979D01*
X12230Y202537D01*
X13839Y200439D01*
X15937Y198830D01*
X18379Y197818D01*
X21000Y197473D01*
X23621Y197818D01*
X26063Y198830D01*
X28161Y200439D01*
X29770Y202537D01*
X30782Y204979D01*
X31127Y207600D01*
X30782Y210221D01*
X29770Y212663D01*
X28161Y214761D01*
X26063Y216370D01*
X23621Y217382D01*
X21000Y217727D01*
D02*
G37*
G36*
X46400Y166927D02*
X43779Y166582D01*
X41337Y165570D01*
X39239Y163961D01*
X37630Y161863D01*
X36618Y159421D01*
X36273Y156800D01*
X36618Y154179D01*
X37630Y151737D01*
X39239Y149639D01*
X41337Y148030D01*
X43779Y147018D01*
X46400Y146673D01*
X49021Y147018D01*
X51463Y148030D01*
X53561Y149639D01*
X55170Y151737D01*
X56182Y154179D01*
X56527Y156800D01*
X56182Y159421D01*
X55170Y161863D01*
X53561Y163961D01*
X51463Y165570D01*
X49021Y166582D01*
X46400Y166927D01*
D02*
G37*
G36*
X21000D02*
X18379Y166582D01*
X15937Y165570D01*
X13839Y163961D01*
X12230Y161863D01*
X11218Y159421D01*
X10873Y156800D01*
X11218Y154179D01*
X12230Y151737D01*
X13839Y149639D01*
X15937Y148030D01*
X18379Y147018D01*
X21000Y146673D01*
X23621Y147018D01*
X26063Y148030D01*
X28161Y149639D01*
X29770Y151737D01*
X30782Y154179D01*
X31127Y156800D01*
X30782Y159421D01*
X29770Y161863D01*
X28161Y163961D01*
X26063Y165570D01*
X23621Y166582D01*
X21000Y166927D01*
D02*
G37*
G36*
X176290Y146730D02*
X169750D01*
X163210D01*
Y140710D01*
X163210D01*
Y140290D01*
X163210D01*
Y134270D01*
X169750D01*
X176290D01*
Y140290D01*
X176290D01*
Y140710D01*
X176290D01*
Y146730D01*
D02*
G37*
G36*
Y131730D02*
X169750D01*
X163210D01*
Y125710D01*
X163592D01*
Y118290D01*
X163210D01*
Y112270D01*
X169750D01*
X176290D01*
Y118290D01*
X175908D01*
Y125710D01*
X176290D01*
Y131730D01*
D02*
G37*
G36*
Y109730D02*
X169750D01*
X163210D01*
Y103710D01*
Y98270D01*
X169750D01*
X176290D01*
Y103710D01*
Y109730D01*
D02*
G37*
G36*
X46400Y65327D02*
X43779Y64982D01*
X41337Y63970D01*
X39239Y62361D01*
X37630Y60263D01*
X36618Y57821D01*
X36273Y55200D01*
X36618Y52579D01*
X37630Y50137D01*
X39239Y48039D01*
X41337Y46430D01*
X43779Y45418D01*
X46400Y45073D01*
X49021Y45418D01*
X51463Y46430D01*
X53561Y48039D01*
X55170Y50137D01*
X56182Y52579D01*
X56527Y55200D01*
X56182Y57821D01*
X55170Y60263D01*
X53561Y62361D01*
X51463Y63970D01*
X49021Y64982D01*
X46400Y65327D01*
D02*
G37*
G36*
X399430Y32064D02*
X397948Y31869D01*
X395385Y30807D01*
X393183Y29117D01*
X391493Y26916D01*
X390431Y24351D01*
X390236Y22870D01*
X399430D01*
Y32064D01*
D02*
G37*
%LPD*%
D10*
X262999Y81000D02*
X265499Y78500D01*
X288500D01*
X256076Y85445D02*
X259631Y89000D01*
X241954Y85445D02*
X256076D01*
X254721Y88715D02*
X258277Y92270D01*
X240599Y88715D02*
X254721D01*
X223581Y153540D02*
X237377D01*
X219750Y149709D02*
X223581Y153540D01*
X219750Y145507D02*
Y149709D01*
X217743Y143500D02*
X219750Y145507D01*
X214007Y143500D02*
X217743D01*
X240917Y150000D02*
X241999D01*
X237377Y153540D02*
X240917Y150000D01*
X234000Y101000D02*
Y102026D01*
X256250Y124277D01*
X263937Y98810D02*
X265232D01*
X268922Y102500D01*
X288500D01*
X252298Y95540D02*
X260667D01*
X252012Y95255D02*
X252298Y95540D01*
X221460Y90919D02*
Y110700D01*
Y90919D02*
X222761Y89617D01*
Y68753D02*
Y89617D01*
X256250Y124277D02*
Y131250D01*
X235418Y108362D02*
X248250Y121194D01*
Y131250D02*
X250000Y133000D01*
X248250Y121194D02*
Y131250D01*
X221460Y110700D02*
X225662Y114902D01*
X251845Y108620D02*
X265793D01*
X251805Y108580D02*
X251845Y108620D01*
X265793D02*
X275673Y118500D01*
X265291Y95540D02*
X272725D01*
X260535Y102000D02*
X261885Y103350D01*
X257958Y102080D02*
X260455D01*
X260535Y102000D01*
X260667Y95540D02*
X263937Y98810D01*
X262021Y92270D02*
X265291Y95540D01*
X258277Y92270D02*
X262021D01*
X259631Y89000D02*
X268000D01*
X256842Y115620D02*
X257924D01*
X240762Y74762D02*
Y75004D01*
X232571Y76062D02*
X241954Y85445D01*
X229301Y77416D02*
X240599Y88715D01*
X265147Y103350D02*
X272297Y110500D01*
X261885Y103350D02*
X265147D01*
X257924Y115620D02*
X259384Y114160D01*
X228371Y108362D02*
X235418D01*
X272297Y110500D02*
X288500D01*
X275673Y118500D02*
X288500D01*
X229301Y66044D02*
Y77416D01*
X232571Y64690D02*
Y76062D01*
X235841Y69841D02*
X240762Y74762D01*
X235841Y63335D02*
Y69841D01*
X240250Y124757D02*
Y131250D01*
X230395Y114902D02*
X240250Y124757D01*
X225662Y114902D02*
X230395D01*
X256250Y131250D02*
X258000Y133000D01*
Y48000D02*
Y60918D01*
X261000Y63917D01*
X202710Y132203D02*
X214007Y143500D01*
X202710Y119290D02*
Y132203D01*
X242256Y65747D02*
X242512Y66003D01*
X242256Y48256D02*
Y65747D01*
X242000Y48000D02*
X242256Y48256D01*
X240250Y131250D02*
X242000Y133000D01*
X226381Y58500D02*
X232571Y64690D01*
X226381Y48381D02*
Y58500D01*
X226000Y48000D02*
X226381Y48381D01*
X202710Y119290D02*
X203500Y118500D01*
X219750Y56494D02*
X229301Y66044D01*
X219750Y49750D02*
Y56494D01*
X215000Y59500D02*
Y65351D01*
X210750Y55250D02*
X215000Y59500D01*
X234000Y61495D02*
X235841Y63335D01*
X234000Y48000D02*
Y61495D01*
X218000Y48000D02*
X219750Y49750D01*
X266000Y60119D02*
X275149Y69268D01*
X274378Y93888D02*
X275460D01*
X272725Y95540D02*
X274378Y93888D01*
X259384Y114160D02*
X266708D01*
X274000Y121452D01*
Y133000D01*
X252000Y62918D02*
Y64000D01*
X250000Y60918D02*
X252000Y62918D01*
X250000Y48000D02*
Y60918D01*
X261000Y63917D02*
Y65000D01*
X266000Y48000D02*
Y60119D01*
X368000Y34000D02*
X379695D01*
X387600Y41905D01*
Y52508D01*
X388454Y53362D01*
D11*
X264000Y120700D02*
X264669Y121370D01*
Y131669D01*
X266000Y133000D01*
X217344Y132345D02*
X218000Y133000D01*
D12*
X329071Y248650D02*
X333500Y253079D01*
X328700Y248650D02*
X329071D01*
X324000Y243950D02*
X328700Y248650D01*
X341129Y286050D02*
X345750D01*
X333500Y278421D02*
X341129Y286050D01*
X333500Y253079D02*
Y278421D01*
X319750Y243950D02*
X324000D01*
X319750D02*
X322000D01*
Y231000D02*
Y243950D01*
Y231000D02*
X324000Y229000D01*
X318700Y53300D02*
X329700Y42300D01*
X354267D01*
X358181Y46214D02*
X361000Y49033D01*
Y78323D01*
X400700Y72400D02*
X415000Y58100D01*
X386400Y86700D02*
X400700Y72400D01*
X179750Y90500D02*
X186250D01*
X103000Y67000D02*
X111334Y67030D01*
X209260Y128256D02*
X213256D01*
X217344Y132345D01*
X370738Y19744D02*
X373444D01*
X365114D02*
X370738D01*
X372594Y21600D01*
X369414Y18420D02*
X370738Y19744D01*
X294500Y26500D02*
X307750D01*
X415000Y10055D02*
Y58100D01*
X314043Y9880D02*
X365120D01*
X368460Y6540D02*
X411485D01*
X365120Y9880D02*
X368460Y6540D01*
X411485D02*
X415000Y10055D01*
X313923Y10000D02*
X314043Y9880D01*
X308250Y10500D02*
X308750Y10000D01*
X313923D01*
X308250Y27000D02*
X309000D01*
X317580Y18420D01*
X363790D01*
X307750Y26500D02*
X308250Y27000D01*
X294500Y11750D02*
Y25750D01*
X363790Y18420D02*
X369414D01*
X373444Y19744D02*
X375300Y21600D01*
X363790Y18420D02*
X365114Y19744D01*
X372594Y21600D02*
X375300D01*
X361000Y78323D02*
X369377Y86700D01*
X386400D01*
X318700Y53300D02*
Y56000D01*
D15*
X99500Y129750D02*
X100250D01*
X92898Y123148D02*
X99500Y129750D01*
X90460Y123148D02*
X92898D01*
X89886Y122574D02*
X90460Y123148D01*
X106500Y136750D02*
X113500Y129750D01*
X94550Y136750D02*
X106500D01*
X89800Y132000D02*
X94550Y136750D01*
X89000Y132000D02*
X89800D01*
X21000Y106000D02*
X33300Y93700D01*
X68578D01*
X88878Y114000D01*
X46150Y29800D02*
X46400D01*
X33122Y42828D02*
X46150Y29800D01*
X15978Y42828D02*
X33122D01*
X8700Y50105D02*
X15978Y42828D01*
X8700Y111095D02*
X15905Y118300D01*
X53888D01*
X8700Y50105D02*
Y111095D01*
X53888Y118300D02*
X58188Y114000D01*
X59000D01*
X81960Y129084D02*
Y133001D01*
X65730Y149231D02*
X81960Y133001D01*
X65730Y149231D02*
Y174226D01*
X70000Y151000D02*
Y175995D01*
Y151000D02*
X89000Y132000D01*
X89000D01*
X81960Y129084D02*
X86084Y124960D01*
X86688D01*
X89074Y122574D01*
X89886D01*
X46400Y182200D02*
X57756D01*
X65730Y174226D01*
X51495Y194500D02*
X70000Y175995D01*
X33300Y194500D02*
X51495D01*
X21000Y182200D02*
X33300Y194500D01*
X344000Y81250D02*
X348000Y78000D01*
Y74150D02*
Y78000D01*
X301300Y81250D02*
X344250D01*
X297300Y85250D02*
X301300Y81250D01*
X289750Y85250D02*
X297300D01*
X288500Y86500D02*
X289750Y85250D01*
X113500Y129750D02*
X114250D01*
X157816Y188500D02*
X158066Y188750D01*
X156066Y188500D02*
X157816D01*
X154316Y186750D02*
X156066Y188500D01*
X154300Y186750D02*
X154316D01*
X152780Y185230D02*
X154300Y186750D01*
X152159Y185230D02*
X152780D01*
X151159Y184230D02*
X152159Y185230D01*
X295000Y196000D02*
Y206000D01*
X287000Y196000D02*
Y206000D01*
X271000Y196000D02*
Y206000D01*
X279000Y196000D02*
Y206000D01*
D16*
X196010Y125816D02*
Y127006D01*
X201550Y112450D02*
X203500Y110500D01*
X195340Y112450D02*
X201550D01*
X193200Y114590D02*
X195340Y112450D01*
X193200Y114590D02*
Y123006D01*
X196010Y125816D01*
D31*
X417000Y260750D02*
D03*
Y277250D02*
D03*
X212000Y167250D02*
D03*
Y150750D02*
D03*
X103000Y73750D02*
D03*
Y90250D02*
D03*
Y43750D02*
D03*
Y60250D02*
D03*
X348000Y73750D02*
D03*
Y90250D02*
D03*
X320000Y73750D02*
D03*
Y90250D02*
D03*
X334000Y73750D02*
D03*
Y90250D02*
D03*
X306000Y73750D02*
D03*
Y90250D02*
D03*
D36*
X459750Y99000D02*
D03*
X476250D02*
D03*
X278000Y25750D02*
D03*
X294500D02*
D03*
X186250Y111000D02*
D03*
X169750D02*
D03*
X186250Y97000D02*
D03*
X169750D02*
D03*
X186250Y83000D02*
D03*
X169750D02*
D03*
X186250Y133000D02*
D03*
X169750D02*
D03*
X186250Y148000D02*
D03*
X169750D02*
D03*
X216000Y247000D02*
D03*
X199500D02*
D03*
X169500D02*
D03*
X186000D02*
D03*
X169750Y232000D02*
D03*
X186250D02*
D03*
D49*
X375300Y72400D02*
D03*
Y47000D02*
D03*
Y21600D02*
D03*
X400700D02*
D03*
Y47000D02*
D03*
Y72400D02*
D03*
D54*
X21000Y233000D02*
D03*
X46400D02*
D03*
X21000Y207600D02*
D03*
X46400D02*
D03*
X21000Y182200D02*
D03*
X46400D02*
D03*
X21000Y156800D02*
D03*
X46400D02*
D03*
X21000Y131400D02*
D03*
X46400D02*
D03*
X21000Y106000D02*
D03*
X46400D02*
D03*
X21000Y80600D02*
D03*
X46400D02*
D03*
X21000Y55200D02*
D03*
X46400D02*
D03*
X21000Y29800D02*
D03*
X361000Y168400D02*
D03*
D03*
D03*
X122400Y291400D02*
D03*
X97000D02*
D03*
X71600D02*
D03*
X46200D02*
D03*
X20800D02*
D03*
X122400Y266000D02*
D03*
X97000D02*
D03*
X71600D02*
D03*
X46200D02*
D03*
D59*
X114250Y146250D02*
D03*
Y129750D02*
D03*
X100250Y146250D02*
D03*
Y129750D02*
D03*
X308250Y27000D02*
D03*
Y10500D02*
D03*
X238000Y161750D02*
D03*
Y178250D02*
D03*
X179000Y52750D02*
D03*
Y69250D02*
D03*
D60*
X383200Y103015D02*
D03*
X395900D02*
D03*
X408600D02*
D03*
X421300D02*
D03*
X383200Y157515D02*
D03*
X395900D02*
D03*
X408600D02*
D03*
X421300D02*
D03*
D61*
X221750Y13750D02*
D03*
X262750D02*
D03*
X221750Y29750D02*
D03*
X262750D02*
D03*
D62*
X278000Y11750D02*
D03*
X294500D02*
D03*
X304750Y134000D02*
D03*
X321250D02*
D03*
D63*
X440000Y190500D02*
D03*
Y171500D02*
D03*
X462000Y181000D02*
D03*
D64*
X440000Y154000D02*
D03*
Y141300D02*
D03*
Y128600D02*
D03*
Y115900D02*
D03*
X494500Y154000D02*
D03*
Y141300D02*
D03*
Y128600D02*
D03*
Y115900D02*
D03*
X345750Y286050D02*
D03*
Y273350D02*
D03*
Y260650D02*
D03*
Y247950D02*
D03*
X400250Y286050D02*
D03*
Y273350D02*
D03*
Y260650D02*
D03*
Y247950D02*
D03*
X319750Y243950D02*
D03*
Y256650D02*
D03*
Y269350D02*
D03*
Y282050D02*
D03*
X265250Y243950D02*
D03*
Y256650D02*
D03*
Y269350D02*
D03*
Y282050D02*
D03*
X310250Y151950D02*
D03*
Y164650D02*
D03*
Y177350D02*
D03*
Y190050D02*
D03*
X255750Y151950D02*
D03*
Y164650D02*
D03*
Y177350D02*
D03*
Y190050D02*
D03*
D65*
X314500Y207000D02*
D03*
X333500D02*
D03*
X324000Y229000D02*
D03*
D66*
X295000Y224000D02*
D03*
X287000D02*
D03*
X279000D02*
D03*
X271000D02*
D03*
X295000Y206000D02*
D03*
X287000D02*
D03*
X279000D02*
D03*
X271000D02*
D03*
D67*
X318700Y56000D02*
D03*
X347300D02*
D03*
D68*
X203500Y118500D02*
D03*
Y110500D02*
D03*
Y102500D02*
D03*
Y94500D02*
D03*
Y86500D02*
D03*
Y78500D02*
D03*
Y70500D02*
D03*
Y62500D02*
D03*
X288500D02*
D03*
Y70500D02*
D03*
Y78500D02*
D03*
Y86500D02*
D03*
Y94500D02*
D03*
Y102500D02*
D03*
Y110500D02*
D03*
Y118500D02*
D03*
D69*
X218000Y48000D02*
D03*
X226000D02*
D03*
X234000D02*
D03*
X242000D02*
D03*
X250000D02*
D03*
X258000D02*
D03*
X266000D02*
D03*
X274000D02*
D03*
Y133000D02*
D03*
X266000D02*
D03*
X258000D02*
D03*
X250000D02*
D03*
X242000D02*
D03*
X234000D02*
D03*
X226000D02*
D03*
X218000D02*
D03*
D70*
X163750Y172000D02*
D03*
X194250D02*
D03*
D71*
X310250Y190050D02*
X314500D01*
X318254Y186296D01*
Y185437D02*
Y186296D01*
Y185437D02*
X323766Y179925D01*
Y179509D02*
Y179925D01*
X243627Y198000D02*
Y199270D01*
X265857Y221500D01*
X255750Y190050D02*
Y202907D01*
X267343Y214500D01*
X265857Y221500D02*
X271000D01*
Y221657D02*
X279000D01*
X271000D02*
Y224000D01*
Y221500D02*
Y221657D01*
X314500Y207000D02*
Y209000D01*
X309000Y214500D02*
X314500Y209000D01*
X267343Y214500D02*
X309000D01*
X295000Y221750D02*
Y224000D01*
X287000Y221750D02*
X295000D01*
X279000D02*
X287000D01*
X244150Y170000D02*
X251500Y177350D01*
X234000Y170000D02*
X244150D01*
X251500Y177350D02*
X255750D01*
X215920Y76385D02*
Y86500D01*
X215000Y75466D02*
X215920Y76385D01*
X215000Y65351D02*
Y75466D01*
X203500Y86500D02*
X215920D01*
Y97987D01*
X212157Y101750D02*
X215920Y97987D01*
X204250Y101750D02*
X212157D01*
X279000Y221750D02*
Y224000D01*
Y221657D02*
Y221750D01*
X287000D02*
Y224000D01*
X169750Y83000D02*
Y83750D01*
X203500Y102500D02*
X204250Y101750D01*
D72*
X310750Y190550D02*
X316414D01*
X328364Y202500D01*
X331000D01*
X310250Y190050D02*
X310750Y190550D01*
X306000Y190050D02*
X310250D01*
X331000Y202500D02*
X333500Y205000D01*
Y207000D01*
X322000Y147086D02*
Y169850D01*
X310750Y176850D02*
X315000D01*
X315226Y176624D02*
X322000Y169850D01*
X315226Y176624D02*
Y176624D01*
X310250Y177350D02*
X310750Y176850D01*
X315000D02*
X315226Y176624D01*
X333424Y188560D02*
X345750Y200886D01*
X325794Y188560D02*
X333424D01*
X234317Y201330D02*
X265987Y233000D01*
X234317Y200180D02*
Y201330D01*
X229250Y195114D02*
X234317Y200180D01*
X265987Y233000D02*
X270914D01*
X296884Y151950D02*
X312250D01*
X312750Y151450D01*
Y128250D02*
Y151450D01*
X374531Y110960D02*
X378336Y114765D01*
X305750Y125250D02*
X320040Y110960D01*
X374531D01*
X323770Y117230D02*
X367848D01*
X312750Y128250D02*
X323770Y117230D01*
X367848D02*
X383200Y132582D01*
X322250Y127617D02*
X326367Y123500D01*
X365251D02*
X375700Y133949D01*
X326367Y123500D02*
X365251D01*
X301000Y94500D02*
X308250Y101750D01*
X313389D01*
X440000Y115900D02*
X444250D01*
X451750Y123400D01*
X440000Y141300D02*
X444250D01*
X451750Y133800D01*
Y123400D02*
Y133800D01*
X235419Y144233D02*
Y144503D01*
X226145Y146855D02*
X226290Y147000D01*
X246636Y157150D02*
X250220D01*
X244746Y159040D02*
X246636Y157150D01*
X234250Y143064D02*
X235419Y144233D01*
X234000Y133000D02*
X234250Y133250D01*
Y143064D01*
X100250Y146250D02*
X114250D01*
X292500Y251768D02*
Y267699D01*
Y251768D02*
X310618D01*
X289682D02*
X292500D01*
Y267699D02*
X306851Y282050D01*
X369790Y253191D02*
Y261509D01*
X355591Y247310D02*
X363909D01*
X369790Y253191D01*
X355451Y247450D02*
X355591Y247310D01*
X346250Y247450D02*
X355451D01*
X345750Y247950D02*
X346250Y247450D01*
X345750Y200886D02*
Y247950D01*
X345750Y247950D02*
X345750Y247950D01*
X358449Y272850D02*
X369790Y261509D01*
X346250Y272850D02*
X358449D01*
X345750Y273350D02*
X346250Y272850D01*
X229250Y172886D02*
Y195114D01*
Y172886D02*
X231886Y170250D01*
X233750D01*
X270914Y233000D02*
X289682Y251768D01*
X233750Y170250D02*
X234000Y170000D01*
X306851Y282050D02*
X319750D01*
X315500Y256650D02*
X319750D01*
X310618Y251768D02*
X315500Y256650D01*
X303040Y197729D02*
Y198000D01*
Y197729D02*
X305500Y195269D01*
Y190550D02*
Y195269D01*
X271000Y177000D02*
Y196000D01*
X287000Y160000D02*
X295832Y151168D01*
X287000Y160000D02*
Y196000D01*
X321250Y134000D02*
Y146336D01*
X238750Y178250D02*
X250050Y189550D01*
X238000Y178250D02*
X238750D01*
X250050Y189550D02*
X255250D01*
X255800Y152000D02*
X274000D01*
X292000Y134000D02*
X304750D01*
X274000Y152000D02*
X292000Y134000D01*
X255250Y189550D02*
X255750Y190050D01*
Y151950D02*
X255800Y152000D01*
X271000Y165000D02*
X279040Y173040D01*
Y195960D01*
X279000Y196000D02*
X279040Y195960D01*
X321250Y146336D02*
X322000Y147086D01*
X250220Y157150D02*
X254040Y153330D01*
Y151950D02*
Y153330D01*
Y151950D02*
X255750D01*
X240960Y159040D02*
X244746D01*
X238000Y162000D02*
X240960Y159040D01*
X305500Y190550D02*
X306000Y190050D01*
X296500Y162500D02*
X296771D01*
X383200Y132582D02*
Y157515D01*
X270825Y164825D02*
X271000Y165000D01*
X295832Y151168D02*
X296102D01*
X180000Y70250D02*
X203250D01*
X179000Y69250D02*
X180000Y70250D01*
X188750Y94500D02*
X203500D01*
X186250Y96250D02*
X187750Y94750D01*
X188500D01*
X188750Y94500D01*
X274250Y38189D02*
X277179Y35260D01*
X360720Y26720D02*
X368000Y34000D01*
X323247Y26720D02*
X360720D01*
X277179Y35260D02*
X314707D01*
X323247Y26720D01*
X288500Y70500D02*
X302000D01*
X305250Y73750D01*
X288500Y94500D02*
X301000D01*
X305250Y90250D01*
X190000Y78500D02*
X203500D01*
X186250Y82250D02*
X190000Y78500D01*
X357597Y34260D02*
X368232Y44895D01*
X354267Y42300D02*
X354767Y42800D01*
X355164D01*
X357800Y45436D01*
Y45833D01*
X358181Y46214D01*
X373195Y44895D02*
X375300Y47000D01*
X368232Y44895D02*
X373195D01*
X191120Y52710D02*
X196758Y58347D01*
X179040Y52710D02*
X191120D01*
X196758Y58347D02*
Y60507D01*
X198750Y62500D01*
X203500D01*
X274000Y48000D02*
X274250Y47750D01*
Y38189D02*
Y47750D01*
X326370Y34260D02*
X357597D01*
X317830Y42800D02*
X326370Y34260D01*
X287113Y42800D02*
X317830D01*
X284184Y45729D02*
X287113Y42800D01*
X284184Y45729D02*
Y62250D01*
X284434Y62500D01*
X288500D01*
X305250Y90250D02*
X306000D01*
X305250Y73750D02*
X306000D01*
X286000Y127000D02*
X297636D01*
X299386Y125250D02*
X305750D01*
X297636Y127000D02*
X299386Y125250D01*
X158750Y69250D02*
X179000D01*
X136000Y44500D02*
X138435D01*
X147645Y53710D01*
X178040D01*
X179040Y52710D01*
X136000Y92000D02*
X158750Y69250D01*
X114250Y146250D02*
X126000D01*
X151159Y171409D02*
Y184230D01*
X126000Y146250D02*
X151159Y171409D01*
X158066Y188750D02*
X163750D01*
X203314Y228314D02*
X218980D01*
X163750Y188750D02*
X203314Y228314D01*
X111334Y67030D02*
X117114Y61250D01*
X185114D02*
X185673Y61809D01*
X187809D01*
X117114Y61250D02*
X185114D01*
X187809Y61809D02*
X188000Y62000D01*
X226145Y133145D02*
Y146855D01*
X321250Y134000D02*
X322250Y133000D01*
Y127617D02*
Y133000D01*
X295000Y164812D02*
Y196000D01*
X378336Y114765D02*
X426164D01*
X375700Y166629D02*
X384606Y175535D01*
X375700Y133949D02*
Y166629D01*
X384606Y175535D02*
X415703D01*
X383200Y157515D02*
Y161765D01*
X432635Y112785D02*
X435750Y115900D01*
X428144Y112785D02*
X432635D01*
X426164Y114765D02*
X428144Y112785D01*
X435750Y115900D02*
X440000D01*
X437500Y188000D02*
X440000Y190500D01*
X415703Y175535D02*
X427438Y187270D01*
X433301Y188000D02*
X437500D01*
X432571Y187270D02*
X433301Y188000D01*
X427438Y187270D02*
X432571D01*
X421300Y154500D02*
Y172265D01*
X448864Y181000D02*
X462000D01*
X431136Y181000D02*
X448864D01*
X431136Y181000D02*
X431136Y181000D01*
X430035Y181000D02*
X431136D01*
X421300Y172265D02*
X430035Y181000D01*
X448864Y181000D02*
X448864Y181000D01*
X383200Y161765D02*
X390700Y169265D01*
X401100D01*
X408600Y161765D01*
Y157515D02*
Y161765D01*
X226000Y133000D02*
X226145Y133145D01*
X204020Y152250D02*
X210500D01*
X212000Y150750D01*
X388454Y53362D02*
Y59246D01*
X375300Y72400D02*
X388454Y59246D01*
X270825Y177175D02*
X271000Y177000D01*
X255925Y177175D02*
X270825D01*
X421300Y154500D02*
X421800Y154000D01*
X440000D01*
X255750Y164650D02*
X255925Y164825D01*
X270825D01*
X255750Y177350D02*
X255925Y177175D01*
X309750Y164150D02*
X310250Y164650D01*
X298421Y164150D02*
X309750D01*
X296771Y162500D02*
X298421Y164150D01*
X296102Y151168D02*
X296884Y151950D01*
D73*
X228000Y208830D02*
Y212000D01*
X224547Y205377D02*
X228000Y208830D01*
X224547Y204694D02*
Y205377D01*
X197832Y177980D02*
X224547Y204694D01*
X386840Y193000D02*
X411000D01*
X378699Y184858D02*
X386840Y193000D01*
X361812Y168400D02*
X363312Y169900D01*
X363382D01*
X370412Y176929D01*
Y177000D01*
X361000Y168400D02*
X361812D01*
X400250Y247950D02*
Y260650D01*
Y276350D02*
Y286050D01*
Y260650D02*
Y273350D01*
Y260650D02*
X400350Y260750D01*
X417000D01*
Y279250D02*
X420564D01*
X265250Y278000D02*
X283000D01*
X265000D02*
X265250D01*
Y282050D01*
Y269350D02*
Y278000D01*
Y256650D02*
Y269350D01*
Y243950D02*
Y256650D01*
X194250Y175250D02*
X196980Y177980D01*
X194250Y172000D02*
Y175250D01*
X196980Y177980D02*
X197832D01*
X265250Y282050D02*
X265650Y281650D01*
X417000Y279250D02*
Y283000D01*
Y277250D02*
Y279250D01*
Y260750D02*
X427050Y250700D01*
X463802D01*
X483102Y270000D02*
X484100D01*
X463802Y250700D02*
X483102Y270000D01*
X444469Y271531D02*
X446000Y270000D01*
X428283Y271531D02*
X444469D01*
X420564Y279250D02*
X428283Y271531D01*
X416000Y284000D02*
X417000Y283000D01*
X472270Y63995D02*
X484100Y52165D01*
X472270Y63995D02*
Y92753D01*
X474260Y97010D02*
X483279Y106030D01*
X472270Y92753D02*
X474260Y94743D01*
Y97010D01*
X446000Y50319D02*
X459000Y63319D01*
Y98250D01*
X484100Y50000D02*
Y52165D01*
X446000Y50000D02*
Y50319D01*
X494500Y128600D02*
Y141300D01*
Y154000D01*
X408600Y103015D02*
X421300D01*
X450735D01*
X219515Y242210D02*
Y274715D01*
X395900Y148651D02*
X415951Y128600D01*
X494500Y115900D02*
Y128600D01*
Y114150D02*
Y115900D01*
X483279Y106030D02*
X486380D01*
X494500Y114150D01*
X450735Y103015D02*
X456710Y97040D01*
X458670Y99000D01*
X383200Y103015D02*
X395900D01*
X408600D01*
X415951Y128600D02*
X440000D01*
X395900Y148651D02*
Y157515D01*
X218980Y228314D02*
Y241675D01*
X219515Y242210D01*
X218980Y228314D02*
X227300Y219994D01*
X219515Y274715D02*
X219800Y275000D01*
X227300Y212700D02*
X228000Y212000D01*
X227300Y212700D02*
Y219994D01*
D74*
X209000Y38000D02*
Y51750D01*
X216250Y30750D02*
X221250D01*
X209000Y38000D02*
X216250Y30750D01*
X221750Y29250D02*
X222250Y29750D01*
X221250Y30750D02*
X221750Y30250D01*
Y28750D02*
Y30250D01*
X222250Y29750D02*
X262250D01*
X262750Y29250D01*
X263250Y28750D02*
X266250Y25750D01*
X262750Y28750D02*
X263250D01*
X266250Y25750D02*
X278000D01*
X222250Y13750D02*
X262250D01*
X262750Y28750D02*
Y29250D01*
Y12750D02*
Y13250D01*
X262250Y13750D02*
X262750Y13250D01*
X221750D02*
X222250Y13750D01*
X221750Y12750D02*
Y13250D01*
X347650Y73750D02*
X348000D01*
X347650Y56350D02*
Y73750D01*
X347300Y56000D02*
X347650Y56350D01*
D75*
X145200Y294800D02*
X184113D01*
X192900Y276500D02*
Y286013D01*
X130000Y310000D02*
X145200Y294800D01*
X184113D02*
X192900Y286013D01*
X38920Y310000D02*
X130000D01*
X20800Y291400D02*
Y291880D01*
X38920Y310000D01*
X192900Y276500D02*
X194400Y275000D01*
D76*
X212000Y167250D02*
X212500Y167750D01*
X216750D01*
X220000Y171000D01*
X169750Y133000D02*
Y148000D01*
Y159750D01*
Y111000D02*
Y133000D01*
Y159750D02*
X170000Y160000D01*
X218290Y161710D02*
X237210D01*
X213250Y166750D02*
X218290Y161710D01*
X103000Y43750D02*
X103375Y44125D01*
X135625D02*
X136000Y44500D01*
X103375Y44125D02*
X135625D01*
X134750Y90750D02*
X136000Y92000D01*
X103500Y90750D02*
X134750D01*
X103000Y90250D02*
X103500Y90750D01*
X237210Y161710D02*
X237250Y161750D01*
X238000D01*
X212500Y166750D02*
X213250D01*
X212000Y167250D02*
X212500Y166750D01*
X186250Y83000D02*
Y90500D01*
Y96250D01*
Y148000D02*
Y160750D01*
Y133000D02*
Y148000D01*
X169750Y97000D02*
Y111000D01*
X194250Y168750D02*
Y172000D01*
X186250Y160750D02*
X194250Y168750D01*
X198750Y167250D02*
X212000D01*
X161000Y84000D02*
X168750D01*
X186250Y111000D02*
Y133000D01*
X168750Y84000D02*
X169750Y83000D01*
X186250Y96250D02*
Y97000D01*
X103000Y60250D02*
Y73750D01*
X169750Y83750D02*
Y97000D01*
X262750Y12750D02*
X263250Y12250D01*
X267250Y11750D02*
X278000D01*
X263250Y12250D02*
X266750D01*
X267250Y11750D01*
X186250Y97000D02*
Y111000D01*
X334000Y73750D02*
X347300D01*
X306000D02*
X320000D01*
X334000D01*
X306000Y90250D02*
X320000D01*
X334000D01*
X348000D01*
D77*
X166750Y167429D02*
X177316D01*
X163750Y168750D02*
Y172000D01*
Y168750D02*
X170000Y162500D01*
Y160000D02*
Y162500D01*
X371412Y178000D02*
X371938D01*
X370412Y177000D02*
X371412Y178000D01*
X371938D02*
X376800Y182862D01*
Y182960D01*
X378699Y184858D01*
X356450Y260650D02*
X359750Y257350D01*
X345750Y260650D02*
X356450D01*
X302999Y264000D02*
X308350Y269350D01*
X319750D01*
X192750Y241010D02*
Y273350D01*
X186250Y234510D02*
X192750Y241010D01*
X186250Y232000D02*
Y234510D01*
X192750Y273350D02*
X194400Y275000D01*
X169500Y247000D02*
X169750Y246750D01*
Y232000D02*
Y246750D01*
X142500Y210000D02*
X144665D01*
X160338Y225673D01*
X163423D01*
X169750Y232000D01*
X159800Y203400D02*
X186250Y229851D01*
X159800Y202834D02*
Y203400D01*
X152486Y195520D02*
X159800Y202834D01*
X152098Y195520D02*
X152486D01*
X151098Y194520D02*
X152098Y195520D01*
X151082Y194520D02*
X151098D01*
X149562Y193000D02*
X151082Y194520D01*
X147527Y193000D02*
X149562D01*
X147227Y192700D02*
X147527Y193000D01*
X124800Y192700D02*
X147227D01*
X107500Y210000D02*
X124800Y192700D01*
X192750Y190250D02*
X207617Y205117D01*
Y211617D02*
X208000Y212000D01*
X207617Y205117D02*
Y211617D01*
X183351Y190250D02*
X192750D01*
X166750Y178250D02*
X173392D01*
X179250Y184108D01*
Y186150D01*
X183351Y190250D01*
X163750Y175250D02*
X166750Y178250D01*
X304000Y53000D02*
X315700D01*
X318700Y56000D01*
X169500Y247000D02*
Y274500D01*
X169000Y275000D02*
X169500Y274500D01*
D78*
X416000Y284000D02*
D03*
X283000Y278000D02*
D03*
X411000Y193000D02*
D03*
X302999Y264000D02*
D03*
X403000Y141000D02*
D03*
X177316Y167429D02*
D03*
X359750Y257350D02*
D03*
D79*
X190000Y10000D02*
D03*
X290000Y310000D02*
D03*
X490000Y210000D02*
D03*
D80*
X46400Y29800D02*
D03*
D81*
X361000Y193800D02*
D03*
Y143000D02*
D03*
D82*
X335600Y168400D02*
D03*
X20800Y266000D02*
D03*
D83*
X484100Y50000D02*
D03*
X446000D02*
D03*
Y270000D02*
D03*
X484100D02*
D03*
D84*
X136000Y44500D02*
D03*
Y92000D02*
D03*
D85*
X107500Y210000D02*
D03*
X142500D02*
D03*
D86*
X208000Y212000D02*
D03*
X228000D02*
D03*
D87*
X169000Y275000D02*
D03*
X194400D02*
D03*
X219800D02*
D03*
D88*
X323766Y179509D02*
D03*
X325794Y188560D02*
D03*
X243627Y198000D02*
D03*
X313389Y101750D02*
D03*
X465250Y168000D02*
D03*
X262999Y81000D02*
D03*
X88878Y114000D02*
D03*
X59000Y114000D02*
D03*
X235419Y144503D02*
D03*
X226290Y147000D02*
D03*
X241999Y150000D02*
D03*
X220000Y171000D02*
D03*
X303040Y198000D02*
D03*
X89886Y122574D02*
D03*
X89000Y132000D02*
D03*
X234000Y101000D02*
D03*
X296500Y162500D02*
D03*
X295832Y151168D02*
D03*
X257958Y102080D02*
D03*
X268000Y89000D02*
D03*
X251805Y108580D02*
D03*
X256842Y115620D02*
D03*
X252012Y95255D02*
D03*
X240762Y75004D02*
D03*
X286000Y127000D02*
D03*
X179750Y90500D02*
D03*
X188000Y62000D02*
D03*
X209260Y128256D02*
D03*
X196010Y127006D02*
D03*
X228371Y108362D02*
D03*
X222761Y68753D02*
D03*
X242512Y66003D02*
D03*
X209000Y51750D02*
D03*
X201000Y155000D02*
D03*
X275149Y69268D02*
D03*
X264000Y120700D02*
D03*
X275460Y93888D02*
D03*
X252000Y64000D02*
D03*
X261000Y65000D02*
D03*
X161000Y84000D02*
D03*
X304000Y53000D02*
D03*
X271000Y165000D02*
D03*
Y177000D02*
D03*
M02*
