G04*
G04 #@! TF.GenerationSoftware,Altium Limited,Altium Designer,20.0.12 (288)*
G04*
G04 Layer_Color=8421504*
%FSLAX44Y44*%
%MOMM*%
G71*
G01*
G75*
%ADD17R,1.1100X0.9600*%
%ADD18R,0.8600X1.7100*%
%ADD19R,1.0600X1.2100*%
%ADD20R,1.1600X1.2600*%
%ADD21R,0.9600X1.1100*%
%ADD22R,1.6600X1.2600*%
%ADD23R,1.7100X0.8600*%
%ADD24R,1.2600X1.6600*%
%ADD25R,1.2100X1.0600*%
%ADD26R,0.6600X1.1600*%
%ADD27R,1.4600X2.0000*%
%ADD28R,1.7600X0.8100*%
%ADD29R,0.8100X1.7600*%
%ADD30R,1.8600X2.5100*%
D17*
X114250Y146250D02*
D03*
Y129750D02*
D03*
X100250Y146250D02*
D03*
Y129750D02*
D03*
X308250Y27000D02*
D03*
Y10500D02*
D03*
X238000Y161750D02*
D03*
Y178250D02*
D03*
X179000Y52750D02*
D03*
Y69250D02*
D03*
D18*
X383200Y103015D02*
D03*
X395900D02*
D03*
X408600D02*
D03*
X421300D02*
D03*
X383200Y157515D02*
D03*
X395900D02*
D03*
X408600D02*
D03*
X421300D02*
D03*
D19*
X459750Y99000D02*
D03*
X476250D02*
D03*
X278000Y25750D02*
D03*
X294500D02*
D03*
X186250Y111000D02*
D03*
X169750D02*
D03*
X186250Y97000D02*
D03*
X169750D02*
D03*
X186250Y83000D02*
D03*
X169750D02*
D03*
X186250Y133000D02*
D03*
X169750D02*
D03*
X186250Y148000D02*
D03*
X169750D02*
D03*
X216000Y247000D02*
D03*
X199500D02*
D03*
X169500D02*
D03*
X186000D02*
D03*
X169750Y232000D02*
D03*
X186250D02*
D03*
D20*
X221750Y13750D02*
D03*
X262750D02*
D03*
X221750Y29750D02*
D03*
X262750D02*
D03*
D21*
X278000Y11750D02*
D03*
X294500D02*
D03*
X304750Y134000D02*
D03*
X321250D02*
D03*
D22*
X440000Y190500D02*
D03*
Y171500D02*
D03*
X462000Y181000D02*
D03*
D23*
X440000Y154000D02*
D03*
Y141300D02*
D03*
Y128600D02*
D03*
Y115900D02*
D03*
X494500Y154000D02*
D03*
Y141300D02*
D03*
Y128600D02*
D03*
Y115900D02*
D03*
X345750Y286050D02*
D03*
Y273350D02*
D03*
Y260650D02*
D03*
Y247950D02*
D03*
X400250Y286050D02*
D03*
Y273350D02*
D03*
Y260650D02*
D03*
Y247950D02*
D03*
X319750Y243950D02*
D03*
Y256650D02*
D03*
Y269350D02*
D03*
Y282050D02*
D03*
X265250Y243950D02*
D03*
Y256650D02*
D03*
Y269350D02*
D03*
Y282050D02*
D03*
X310250Y151950D02*
D03*
Y164650D02*
D03*
Y177350D02*
D03*
Y190050D02*
D03*
X255750Y151950D02*
D03*
Y164650D02*
D03*
Y177350D02*
D03*
Y190050D02*
D03*
D24*
X314500Y207000D02*
D03*
X333500D02*
D03*
X324000Y229000D02*
D03*
D25*
X417000Y260750D02*
D03*
Y277250D02*
D03*
X212000Y167250D02*
D03*
Y150750D02*
D03*
X103000Y73750D02*
D03*
Y90250D02*
D03*
Y43750D02*
D03*
Y60250D02*
D03*
X348000Y73750D02*
D03*
Y90250D02*
D03*
X320000Y73750D02*
D03*
Y90250D02*
D03*
X334000Y73750D02*
D03*
Y90250D02*
D03*
X306000Y73750D02*
D03*
Y90250D02*
D03*
D26*
X295000Y224000D02*
D03*
X287000D02*
D03*
X279000D02*
D03*
X271000D02*
D03*
X295000Y206000D02*
D03*
X287000D02*
D03*
X279000D02*
D03*
X271000D02*
D03*
D27*
X318700Y56000D02*
D03*
X347300D02*
D03*
D28*
X203500Y118500D02*
D03*
Y110500D02*
D03*
Y102500D02*
D03*
Y94500D02*
D03*
Y86500D02*
D03*
Y78500D02*
D03*
Y70500D02*
D03*
Y62500D02*
D03*
X288500D02*
D03*
Y70500D02*
D03*
Y78500D02*
D03*
Y86500D02*
D03*
Y94500D02*
D03*
Y102500D02*
D03*
Y110500D02*
D03*
Y118500D02*
D03*
D29*
X218000Y48000D02*
D03*
X226000D02*
D03*
X234000D02*
D03*
X242000D02*
D03*
X250000D02*
D03*
X258000D02*
D03*
X266000D02*
D03*
X274000D02*
D03*
Y133000D02*
D03*
X266000D02*
D03*
X258000D02*
D03*
X250000D02*
D03*
X242000D02*
D03*
X234000D02*
D03*
X226000D02*
D03*
X218000D02*
D03*
D30*
X163750Y172000D02*
D03*
X194250D02*
D03*
M02*
