M48
;Layer_Color=9474304
;FILE_FORMAT=2:5
INCH,LZ
;TYPE=PLATED
T1F00S00C0.01181
T2F00S00C0.03543
T3F00S00C0.03937
T4F00S00C0.09843
T5F00S00C0.11811
%
T01
X0057874Y0066732
X0070866Y0065354
X0074409Y0053543
X0065354Y0086221
X0100502Y0080211
X0094882Y0095669
Y0136614
X0100625Y0152276
X0104622Y015215
X0098425Y0155511
X0096457Y0158661
X0095095Y0162276
X0091732Y0162598
X009252Y0157382
X0081398Y0156693
X0081402Y0160145
X0081496Y0152264
X0065354Y0148425
X0066142Y014252
X0058079Y0123441
X0042618Y0117323
X0046063Y0176378
X0056693Y0193701
X0059842Y0198819
X0067904Y0200207
X0075581Y0203258
X0074016Y0184252
X0085433Y0190945
X0086221Y0215748
X009685Y0212992
X0093307Y023937
X0088681Y0239063
X0093307Y0248425
X0065945Y0249606
X0067339Y0228862
X0074213Y0228543
X0065354Y0218898
X0062992Y0214567
X0116342Y0143212
X01164Y0139602
X0066142Y0262992
T02
X0120768Y0167697
Y0177697
Y0187697
Y0197697
Y0207697
Y0217697
T03
X001378Y001378
Y0023779
X0035433
Y001378
X0042913Y0009134
Y0048504
X0035433Y005315
Y006315
X001378
Y005315
Y009252
X0035433
X0042913Y0087874
X0035433Y010252
X001378
Y013189
Y014189
X0035433
Y013189
X0042913Y0127244
Y0166614
X0035433Y017126
Y018126
X001378
Y017126
Y021063
Y022063
X0035433
Y021063
X0042913Y0205984
Y0245354
X0035433Y025
X001378
Y026
X0035433
Y028937
Y029937
X001378
Y028937
X0042913Y0284724
T04
X0024606Y0011299
Y002626
Y0050669
Y006563
Y0090039
Y0105
Y0129409
Y014437
Y016878
Y018374
Y020815
Y022311
Y024752
Y026248
Y028689
Y030185
T05
X0111024Y0068898
Y0246063
M30
